<?xml version="1.0" encoding="utf-8" standalone="no"?>
<!DOCTYPE svg PUBLIC "-//W3C//DTD SVG 1.1//EN"
  "http://www.w3.org/Graphics/SVG/1.1/DTD/svg11.dtd">
<svg xmlns:xlink="http://www.w3.org/1999/xlink" width="460.8pt" height="345.6pt" viewBox="0 0 460.8 345.6" xmlns="http://www.w3.org/2000/svg" version="1.1">
 <metadata>
  <rdf:RDF xmlns:dc="http://purl.org/dc/elements/1.1/" xmlns:cc="http://creativecommons.org/ns#" xmlns:rdf="http://www.w3.org/1999/02/22-rdf-syntax-ns#">
   <cc:Work>
    <dc:type rdf:resource="http://purl.org/dc/dcmitype/StillImage"/>
    <dc:date>2022-10-04T15:03:33.700660</dc:date>
    <dc:format>image/svg+xml</dc:format>
    <dc:creator>
     <cc:Agent>
      <dc:title>Matplotlib v3.5.3, https://matplotlib.org/</dc:title>
     </cc:Agent>
    </dc:creator>
   </cc:Work>
  </rdf:RDF>
 </metadata>
 <defs>
  <style type="text/css">*{stroke-linejoin: round; stroke-linecap: butt}</style>
 </defs>
 <g id="figure_1">
  <g id="patch_1">
   <path d="M 0 345.6 
L 460.8 345.6 
L 460.8 0 
L 0 0 
z
" style="fill: #ffffff"/>
  </g>
  <g id="axes_1">
   <g id="patch_2">
    <path d="M 57.6 307.584 
L 414.72 307.584 
L 414.72 41.472 
L 57.6 41.472 
z
" style="fill: #ffffff"/>
   </g>
   <g id="matplotlib.axis_1">
    <g id="xtick_1">
     <g id="line2d_1">
      <path d="M 83.58651 307.584 
L 83.58651 41.472 
" clip-path="url(#p66236f5618)" style="fill: none; stroke: #cccccc; stroke-width: 0.8; stroke-linecap: round"/>
     </g>
     <g id="line2d_2"/>
     <g id="text_1">
      <!-- 20000 -->
      <g style="fill: #262626" transform="translate(69.684166 318.241812)scale(0.1 -0.1)">
       <defs>
        <path id="ArialMT-32" d="M 3222 541 
L 3222 0 
L 194 0 
Q 188 203 259 391 
Q 375 700 629 1000 
Q 884 1300 1366 1694 
Q 2113 2306 2375 2664 
Q 2638 3022 2638 3341 
Q 2638 3675 2398 3904 
Q 2159 4134 1775 4134 
Q 1369 4134 1125 3890 
Q 881 3647 878 3216 
L 300 3275 
Q 359 3922 746 4261 
Q 1134 4600 1788 4600 
Q 2447 4600 2831 4234 
Q 3216 3869 3216 3328 
Q 3216 3053 3103 2787 
Q 2991 2522 2730 2228 
Q 2469 1934 1863 1422 
Q 1356 997 1212 845 
Q 1069 694 975 541 
L 3222 541 
z
" transform="scale(0.015625)"/>
        <path id="ArialMT-30" d="M 266 2259 
Q 266 3072 433 3567 
Q 600 4063 929 4331 
Q 1259 4600 1759 4600 
Q 2128 4600 2406 4451 
Q 2684 4303 2865 4023 
Q 3047 3744 3150 3342 
Q 3253 2941 3253 2259 
Q 3253 1453 3087 958 
Q 2922 463 2592 192 
Q 2263 -78 1759 -78 
Q 1097 -78 719 397 
Q 266 969 266 2259 
z
M 844 2259 
Q 844 1131 1108 757 
Q 1372 384 1759 384 
Q 2147 384 2411 759 
Q 2675 1134 2675 2259 
Q 2675 3391 2411 3762 
Q 2147 4134 1753 4134 
Q 1366 4134 1134 3806 
Q 844 3388 844 2259 
z
" transform="scale(0.015625)"/>
       </defs>
       <use xlink:href="#ArialMT-32"/>
       <use xlink:href="#ArialMT-30" x="55.615234"/>
       <use xlink:href="#ArialMT-30" x="111.230469"/>
       <use xlink:href="#ArialMT-30" x="166.845703"/>
       <use xlink:href="#ArialMT-30" x="222.460938"/>
      </g>
     </g>
    </g>
    <g id="xtick_2">
     <g id="line2d_3">
      <path d="M 161.390431 307.584 
L 161.390431 41.472 
" clip-path="url(#p66236f5618)" style="fill: none; stroke: #cccccc; stroke-width: 0.8; stroke-linecap: round"/>
     </g>
     <g id="line2d_4"/>
     <g id="text_2">
      <!-- 25000 -->
      <g style="fill: #262626" transform="translate(147.488088 318.241812)scale(0.1 -0.1)">
       <defs>
        <path id="ArialMT-35" d="M 266 1200 
L 856 1250 
Q 922 819 1161 601 
Q 1400 384 1738 384 
Q 2144 384 2425 690 
Q 2706 997 2706 1503 
Q 2706 1984 2436 2262 
Q 2166 2541 1728 2541 
Q 1456 2541 1237 2417 
Q 1019 2294 894 2097 
L 366 2166 
L 809 4519 
L 3088 4519 
L 3088 3981 
L 1259 3981 
L 1013 2750 
Q 1425 3038 1878 3038 
Q 2478 3038 2890 2622 
Q 3303 2206 3303 1553 
Q 3303 931 2941 478 
Q 2500 -78 1738 -78 
Q 1113 -78 717 272 
Q 322 622 266 1200 
z
" transform="scale(0.015625)"/>
       </defs>
       <use xlink:href="#ArialMT-32"/>
       <use xlink:href="#ArialMT-35" x="55.615234"/>
       <use xlink:href="#ArialMT-30" x="111.230469"/>
       <use xlink:href="#ArialMT-30" x="166.845703"/>
       <use xlink:href="#ArialMT-30" x="222.460938"/>
      </g>
     </g>
    </g>
    <g id="xtick_3">
     <g id="line2d_5">
      <path d="M 239.194353 307.584 
L 239.194353 41.472 
" clip-path="url(#p66236f5618)" style="fill: none; stroke: #cccccc; stroke-width: 0.8; stroke-linecap: round"/>
     </g>
     <g id="line2d_6"/>
     <g id="text_3">
      <!-- 30000 -->
      <g style="fill: #262626" transform="translate(225.292009 318.241812)scale(0.1 -0.1)">
       <defs>
        <path id="ArialMT-33" d="M 269 1209 
L 831 1284 
Q 928 806 1161 595 
Q 1394 384 1728 384 
Q 2125 384 2398 659 
Q 2672 934 2672 1341 
Q 2672 1728 2419 1979 
Q 2166 2231 1775 2231 
Q 1616 2231 1378 2169 
L 1441 2663 
Q 1497 2656 1531 2656 
Q 1891 2656 2178 2843 
Q 2466 3031 2466 3422 
Q 2466 3731 2256 3934 
Q 2047 4138 1716 4138 
Q 1388 4138 1169 3931 
Q 950 3725 888 3313 
L 325 3413 
Q 428 3978 793 4289 
Q 1159 4600 1703 4600 
Q 2078 4600 2393 4439 
Q 2709 4278 2876 4000 
Q 3044 3722 3044 3409 
Q 3044 3113 2884 2869 
Q 2725 2625 2413 2481 
Q 2819 2388 3044 2092 
Q 3269 1797 3269 1353 
Q 3269 753 2831 336 
Q 2394 -81 1725 -81 
Q 1122 -81 723 278 
Q 325 638 269 1209 
z
" transform="scale(0.015625)"/>
       </defs>
       <use xlink:href="#ArialMT-33"/>
       <use xlink:href="#ArialMT-30" x="55.615234"/>
       <use xlink:href="#ArialMT-30" x="111.230469"/>
       <use xlink:href="#ArialMT-30" x="166.845703"/>
       <use xlink:href="#ArialMT-30" x="222.460938"/>
      </g>
     </g>
    </g>
    <g id="xtick_4">
     <g id="line2d_7">
      <path d="M 316.998275 307.584 
L 316.998275 41.472 
" clip-path="url(#p66236f5618)" style="fill: none; stroke: #cccccc; stroke-width: 0.8; stroke-linecap: round"/>
     </g>
     <g id="line2d_8"/>
     <g id="text_4">
      <!-- 35000 -->
      <g style="fill: #262626" transform="translate(303.095931 318.241812)scale(0.1 -0.1)">
       <use xlink:href="#ArialMT-33"/>
       <use xlink:href="#ArialMT-35" x="55.615234"/>
       <use xlink:href="#ArialMT-30" x="111.230469"/>
       <use xlink:href="#ArialMT-30" x="166.845703"/>
       <use xlink:href="#ArialMT-30" x="222.460938"/>
      </g>
     </g>
    </g>
    <g id="xtick_5">
     <g id="line2d_9">
      <path d="M 394.802196 307.584 
L 394.802196 41.472 
" clip-path="url(#p66236f5618)" style="fill: none; stroke: #cccccc; stroke-width: 0.8; stroke-linecap: round"/>
     </g>
     <g id="line2d_10"/>
     <g id="text_5">
      <!-- 40000 -->
      <g style="fill: #262626" transform="translate(380.899852 318.241812)scale(0.1 -0.1)">
       <defs>
        <path id="ArialMT-34" d="M 2069 0 
L 2069 1097 
L 81 1097 
L 81 1613 
L 2172 4581 
L 2631 4581 
L 2631 1613 
L 3250 1613 
L 3250 1097 
L 2631 1097 
L 2631 0 
L 2069 0 
z
M 2069 1613 
L 2069 3678 
L 634 1613 
L 2069 1613 
z
" transform="scale(0.015625)"/>
       </defs>
       <use xlink:href="#ArialMT-34"/>
       <use xlink:href="#ArialMT-30" x="55.615234"/>
       <use xlink:href="#ArialMT-30" x="111.230469"/>
       <use xlink:href="#ArialMT-30" x="166.845703"/>
       <use xlink:href="#ArialMT-30" x="222.460938"/>
      </g>
     </g>
    </g>
   </g>
   <g id="matplotlib.axis_2">
    <g id="ytick_1">
     <g id="line2d_11">
      <path d="M 57.6 288.219859 
L 414.72 288.219859 
" clip-path="url(#p66236f5618)" style="fill: none; stroke: #cccccc; stroke-width: 0.8; stroke-linecap: round"/>
     </g>
     <g id="line2d_12"/>
     <g id="text_6">
      <!-- 200000 -->
      <g style="fill: #262626" transform="translate(20.734375 291.798765)scale(0.1 -0.1)">
       <use xlink:href="#ArialMT-32"/>
       <use xlink:href="#ArialMT-30" x="55.615234"/>
       <use xlink:href="#ArialMT-30" x="111.230469"/>
       <use xlink:href="#ArialMT-30" x="166.845703"/>
       <use xlink:href="#ArialMT-30" x="222.460938"/>
       <use xlink:href="#ArialMT-30" x="278.076172"/>
      </g>
     </g>
    </g>
    <g id="ytick_2">
     <g id="line2d_13">
      <path d="M 57.6 230.243388 
L 414.72 230.243388 
" clip-path="url(#p66236f5618)" style="fill: none; stroke: #cccccc; stroke-width: 0.8; stroke-linecap: round"/>
     </g>
     <g id="line2d_14"/>
     <g id="text_7">
      <!-- 250000 -->
      <g style="fill: #262626" transform="translate(20.734375 233.822294)scale(0.1 -0.1)">
       <use xlink:href="#ArialMT-32"/>
       <use xlink:href="#ArialMT-35" x="55.615234"/>
       <use xlink:href="#ArialMT-30" x="111.230469"/>
       <use xlink:href="#ArialMT-30" x="166.845703"/>
       <use xlink:href="#ArialMT-30" x="222.460938"/>
       <use xlink:href="#ArialMT-30" x="278.076172"/>
      </g>
     </g>
    </g>
    <g id="ytick_3">
     <g id="line2d_15">
      <path d="M 57.6 172.266918 
L 414.72 172.266918 
" clip-path="url(#p66236f5618)" style="fill: none; stroke: #cccccc; stroke-width: 0.8; stroke-linecap: round"/>
     </g>
     <g id="line2d_16"/>
     <g id="text_8">
      <!-- 300000 -->
      <g style="fill: #262626" transform="translate(20.734375 175.845824)scale(0.1 -0.1)">
       <use xlink:href="#ArialMT-33"/>
       <use xlink:href="#ArialMT-30" x="55.615234"/>
       <use xlink:href="#ArialMT-30" x="111.230469"/>
       <use xlink:href="#ArialMT-30" x="166.845703"/>
       <use xlink:href="#ArialMT-30" x="222.460938"/>
       <use xlink:href="#ArialMT-30" x="278.076172"/>
      </g>
     </g>
    </g>
    <g id="ytick_4">
     <g id="line2d_17">
      <path d="M 57.6 114.290447 
L 414.72 114.290447 
" clip-path="url(#p66236f5618)" style="fill: none; stroke: #cccccc; stroke-width: 0.8; stroke-linecap: round"/>
     </g>
     <g id="line2d_18"/>
     <g id="text_9">
      <!-- 350000 -->
      <g style="fill: #262626" transform="translate(20.734375 117.869353)scale(0.1 -0.1)">
       <use xlink:href="#ArialMT-33"/>
       <use xlink:href="#ArialMT-35" x="55.615234"/>
       <use xlink:href="#ArialMT-30" x="111.230469"/>
       <use xlink:href="#ArialMT-30" x="166.845703"/>
       <use xlink:href="#ArialMT-30" x="222.460938"/>
       <use xlink:href="#ArialMT-30" x="278.076172"/>
      </g>
     </g>
    </g>
    <g id="ytick_5">
     <g id="line2d_19">
      <path d="M 57.6 56.313976 
L 414.72 56.313976 
" clip-path="url(#p66236f5618)" style="fill: none; stroke: #cccccc; stroke-width: 0.8; stroke-linecap: round"/>
     </g>
     <g id="line2d_20"/>
     <g id="text_10">
      <!-- 400000 -->
      <g style="fill: #262626" transform="translate(20.734375 59.892883)scale(0.1 -0.1)">
       <use xlink:href="#ArialMT-34"/>
       <use xlink:href="#ArialMT-30" x="55.615234"/>
       <use xlink:href="#ArialMT-30" x="111.230469"/>
       <use xlink:href="#ArialMT-30" x="166.845703"/>
       <use xlink:href="#ArialMT-30" x="222.460938"/>
       <use xlink:href="#ArialMT-30" x="278.076172"/>
      </g>
     </g>
    </g>
   </g>
   <g id="PathCollection_1">
    <path d="M 232.192 275.465035 
L 243.302931 275.465035 
L 232.192 277.221112 
L 225.453555 275.465035 
z
" clip-path="url(#p66236f5618)" style="fill: #613806"/>
    <path d="M 232.192 276.025288 
L 237.807875 277.088376 
L 232.192 277.875124 
L 223.675639 277.088376 
z
" clip-path="url(#p66236f5618)" style="fill: #613806"/>
    <path d="M 232.192 183.329517 
L 236.158348 177.4848 
L 232.192 174.611171 
L 225.377414 177.4848 
z
" clip-path="url(#p66236f5618)" style="fill: #613806"/>
   </g>
   <g id="PathCollection_2">
    <path d="M 232.192 277.221112 
L 243.302931 275.465035 
L 257.449807 275.465035 
L 232.192 279.457017 
L 216.8739 275.465035 
L 225.453555 275.465035 
z
" clip-path="url(#p66236f5618)" style="fill: #7c4709"/>
    <path d="M 232.192 274.6156 
L 245.254701 277.088376 
L 232.192 278.918376 
L 212.382678 277.088376 
z
M 223.675639 277.088376 
L 232.192 277.875124 
L 237.807875 277.088376 
L 232.192 276.025288 
z
" clip-path="url(#p66236f5618)" style="fill: #7c4709"/>
    <path d="M 232.192 195.682304 
L 244.54121 177.4848 
L 232.192 168.537766 
L 210.974815 177.4848 
z
M 225.377414 177.4848 
L 232.192 174.611171 
L 236.158348 177.4848 
L 232.192 183.329517 
z
" clip-path="url(#p66236f5618)" style="fill: #7c4709"/>
    <path d="M 232.192 244.433483 
L 234.789993 248.795859 
L 232.192 247.495297 
L 224.18114 248.795859 
z
" clip-path="url(#p66236f5618)" style="fill: #7c4709"/>
    <path d="M 414.72 219.146785 
L 405.775306 248.795859 
L 414.72 242.449475 
L 404.574827 248.795859 
z
" clip-path="url(#p66236f5618)" style="fill: #7c4709"/>
   </g>
   <g id="PathCollection_3">
    <path d="M 232.192 279.457017 
L 257.449807 275.465035 
L 271.596683 275.465035 
L 232.192 281.692923 
L 208.294245 275.465035 
L 216.8739 275.465035 
z
" clip-path="url(#p66236f5618)" style="fill: #955910"/>
    <path d="M 232.192 273.205912 
L 252.701528 277.088376 
L 232.192 279.961628 
L 201.089717 277.088376 
z
M 212.382678 277.088376 
L 232.192 278.918376 
L 245.254701 277.088376 
L 232.192 274.6156 
z
" clip-path="url(#p66236f5618)" style="fill: #955910"/>
    <path d="M 98.524863 187.591829 
L 97.879111 177.4848 
L 98.524863 174.747923 
L 99.742055 177.4848 
z
" clip-path="url(#p66236f5618)" style="fill: #955910"/>
    <path d="M 232.192 208.03509 
L 252.924071 177.4848 
L 232.192 162.464362 
L 196.572215 177.4848 
z
M 210.974815 177.4848 
L 232.192 168.537766 
L 244.54121 177.4848 
L 232.192 195.682304 
z
" clip-path="url(#p66236f5618)" style="fill: #955910"/>
    <path d="M 232.192 231.527813 
L 242.475907 248.795859 
L 232.192 243.64771 
L 200.481775 248.795859 
z
M 224.18114 248.795859 
L 232.192 247.495297 
L 234.789993 248.795859 
L 232.192 244.433483 
z
" clip-path="url(#p66236f5618)" style="fill: #955910"/>
    <path d="M 414.72 169.705042 
L 390.859451 248.795859 
L 414.72 231.866472 
L 387.657096 248.795859 
z
M 404.574827 248.795859 
L 414.72 242.449475 
L 405.775306 248.795859 
L 414.72 219.146785 
z
" clip-path="url(#p66236f5618)" style="fill: #955910"/>
    <path d="M 118.90949 215.205467 
L 113.244581 210.879247 
L 118.90949 204.031642 
L 118.925925 210.879247 
z
" clip-path="url(#p66236f5618)" style="fill: #955910"/>
    <path d="M 232.192 50.306751 
L 243.958714 41.472 
L 232.192 46.853249 
L 222.015709 41.472 
z
" clip-path="url(#p66236f5618)" style="fill: #955910"/>
   </g>
   <g id="PathCollection_4">
    <path d="M 232.192 281.692923 
L 271.596683 275.465035 
L 285.74356 275.465035 
L 232.192 283.928829 
L 199.71459 275.465035 
L 208.294245 275.465035 
z
" clip-path="url(#p66236f5618)" style="fill: #ad7021"/>
    <path d="M 85.76502 283.954499 
L 93.529685 259.579482 
L 96.540316 261.898541 
L 85.76502 262.765666 
L 87.162131 261.898541 
L 86.492822 259.579482 
z
" clip-path="url(#p66236f5618)" style="fill: #ad7021"/>
    <path d="M 232.192 271.796224 
L 260.148354 277.088376 
L 232.192 281.00488 
L 189.796756 277.088376 
z
M 201.089717 277.088376 
L 232.192 279.961628 
L 252.701528 277.088376 
L 232.192 273.205912 
z
" clip-path="url(#p66236f5618)" style="fill: #ad7021"/>
    <path d="M 118.90949 285.956709 
L 115.721872 286.596518 
L 118.90949 276.45523 
L 119.016275 286.596518 
z
" clip-path="url(#p66236f5618)" style="fill: #ad7021"/>
    <path d="M 98.524863 212.236444 
L 96.304535 177.4848 
L 98.524863 168.074422 
L 102.710011 177.4848 
z
M 99.742055 177.4848 
L 98.524863 174.747923 
L 97.879111 177.4848 
L 98.524863 187.591829 
z
" clip-path="url(#p66236f5618)" style="fill: #ad7021"/>
    <path d="M 232.192 220.387877 
L 261.306933 177.4848 
L 232.192 156.390958 
L 182.169616 177.4848 
z
M 196.572215 177.4848 
L 232.192 162.464362 
L 252.924071 177.4848 
L 232.192 208.03509 
z
" clip-path="url(#p66236f5618)" style="fill: #ad7021"/>
    <path d="M 414.72 185.282646 
L 406.009801 177.4848 
L 414.72 132.740531 
L 398.651374 177.4848 
z
" clip-path="url(#p66236f5618)" style="fill: #ad7021"/>
    <path d="M 118.90949 225.269823 
L 116.019989 248.795859 
L 98.524863 219.474056 
L 97.444268 210.879247 
L 98.524863 198.562414 
L 118.90949 105.205608 
L 119.163122 210.879247 
L 119.015105 248.795859 
z
M 118.925925 210.879247 
L 118.90949 204.031642 
L 113.244581 210.879247 
L 118.90949 215.205467 
z
" clip-path="url(#p66236f5618)" style="fill: #ad7021"/>
    <path d="M 232.192 218.622142 
L 250.161821 248.795859 
L 232.192 239.800122 
L 176.78241 248.795859 
z
M 200.481775 248.795859 
L 232.192 243.64771 
L 242.475907 248.795859 
L 232.192 231.527813 
z
" clip-path="url(#p66236f5618)" style="fill: #ad7021"/>
    <path d="M 414.72 120.2633 
L 375.943597 248.795859 
L 414.72 221.283468 
L 370.739365 248.795859 
z
M 387.657096 248.795859 
L 414.72 231.866472 
L 390.859451 248.795859 
L 414.72 169.705042 
z
" clip-path="url(#p66236f5618)" style="fill: #ad7021"/>
    <path d="M 232.192 69.160755 
L 269.06974 41.472 
L 232.192 58.337226 
L 200.29876 41.472 
z
M 222.015709 41.472 
L 232.192 46.853249 
L 243.958714 41.472 
L 232.192 50.306751 
z
" clip-path="url(#p66236f5618)" style="fill: #ad7021"/>
    <path d="M 414.72 60.213639 
L 413.109369 41.472 
L 414.72 42.586925 
L 412.234381 41.472 
z
" clip-path="url(#p66236f5618)" style="fill: #ad7021"/>
   </g>
   <g id="PathCollection_5">
    <path d="M 85.76502 306.978924 
L 89.28276 307.584 
L 103.379514 259.579482 
L 115.860652 261.898541 
L 85.76502 264.32044 
L 89.667183 261.898541 
L 87.416072 259.579482 
L 85.997039 307.584 
z
M 86.492822 259.579482 
L 87.162131 261.898541 
L 85.76502 262.765666 
L 96.540316 261.898541 
L 93.529685 259.579482 
L 85.76502 283.954499 
z
" clip-path="url(#p66236f5618)" style="fill: #c38936"/>
    <path d="M 232.192 283.928829 
L 285.74356 275.465035 
L 299.890436 275.465035 
L 232.192 286.164735 
L 191.134935 275.465035 
L 199.71459 275.465035 
z
" clip-path="url(#p66236f5618)" style="fill: #c38936"/>
    <path d="M 334.737569 261.513803 
L 330.516697 259.579482 
L 334.737569 259.653556 
L 332.452111 259.579482 
z
" clip-path="url(#p66236f5618)" style="fill: #c38936"/>
    <path d="M 232.192 270.386536 
L 267.59518 277.088376 
L 232.192 282.048132 
L 178.503795 277.088376 
z
M 189.796756 277.088376 
L 232.192 281.00488 
L 260.148354 277.088376 
L 232.192 271.796224 
z
" clip-path="url(#p66236f5618)" style="fill: #c38936"/>
    <path d="M 118.90949 284.812728 
L 110.022393 286.596518 
L 118.90949 258.322554 
L 119.207206 286.596518 
z
M 119.016275 286.596518 
L 118.90949 276.45523 
L 115.721872 286.596518 
L 118.90949 285.956709 
z
" clip-path="url(#p66236f5618)" style="fill: #c38936"/>
    <path d="M 98.524863 236.881058 
L 94.729958 177.4848 
L 98.524863 161.40092 
L 105.677967 177.4848 
z
M 102.710011 177.4848 
L 98.524863 168.074422 
L 96.304535 177.4848 
L 98.524863 212.236444 
z
" clip-path="url(#p66236f5618)" style="fill: #c38936"/>
    <path d="M 232.192 232.740663 
L 269.689794 177.4848 
L 232.192 150.317554 
L 167.767016 177.4848 
z
M 182.169616 177.4848 
L 232.192 156.390958 
L 261.306933 177.4848 
L 232.192 220.387877 
z
" clip-path="url(#p66236f5618)" style="fill: #c38936"/>
    <path d="M 414.72 199.501115 
L 390.127762 177.4848 
L 382.338412 101.071812 
L 361.027742 248.795859 
L 414.305354 210.879247 
L 399.938876 41.472 
L 414.72 51.70392 
L 391.908921 41.472 
L 414.375854 210.879247 
L 353.821634 248.795859 
L 403.831415 101.071812 
L 369.352093 177.4848 
z
M 398.651374 177.4848 
L 414.72 132.740531 
L 406.009801 177.4848 
L 414.72 185.282646 
z
M 370.739365 248.795859 
L 414.72 221.283468 
L 375.943597 248.795859 
L 414.72 120.2633 
z
M 412.234381 41.472 
L 414.72 42.586925 
L 413.109369 41.472 
L 414.72 60.213639 
z
" clip-path="url(#p66236f5618)" style="fill: #c38936"/>
    <path d="M 118.90949 174.348819 
L 109.7658 248.795859 
L 98.524863 229.956068 
L 96.126403 210.879247 
L 98.524863 183.541115 
L 118.171848 41.472 
L 118.90949 45.070578 
L 118.992308 41.472 
L 119.400318 210.879247 
L 119.243702 248.795859 
z
M 119.015105 248.795859 
L 119.163122 210.879247 
L 118.90949 105.205608 
L 98.524863 198.562414 
L 97.444268 210.879247 
L 98.524863 219.474056 
L 116.019989 248.795859 
L 118.90949 225.269823 
z
" clip-path="url(#p66236f5618)" style="fill: #c38936"/>
    <path d="M 232.192 205.716472 
L 257.847735 248.795859 
L 232.192 235.952535 
L 153.083045 248.795859 
z
M 176.78241 248.795859 
L 232.192 239.800122 
L 250.161821 248.795859 
L 232.192 218.622142 
z
" clip-path="url(#p66236f5618)" style="fill: #c38936"/>
    <path d="M 334.737569 212.675916 
L 327.467829 210.879247 
L 334.737569 170.978107 
L 327.462611 210.879247 
z
" clip-path="url(#p66236f5618)" style="fill: #c38936"/>
    <path d="M 232.192 88.014759 
L 294.180766 41.472 
L 232.192 69.821203 
L 178.581811 41.472 
z
M 200.29876 41.472 
L 232.192 58.337226 
L 269.06974 41.472 
L 232.192 69.160755 
z
" clip-path="url(#p66236f5618)" style="fill: #c38936"/>
    <path d="M 334.737569 139.232119 
L 327.390362 172.035012 
L 334.737569 172.035012 
L 328.852118 172.035012 
z
" clip-path="url(#p66236f5618)" style="fill: #c38936"/>
   </g>
   <g id="PathCollection_6">
    <path d="M 85.76502 304.412933 
L 104.200714 307.584 
L 113.229342 259.579482 
L 135.180988 261.898541 
L 85.76502 265.875214 
L 92.172234 261.898541 
L 88.339322 259.579482 
L 86.980981 307.584 
z
M 85.997039 307.584 
L 87.416072 259.579482 
L 89.667183 261.898541 
L 85.76502 264.32044 
L 115.860652 261.898541 
L 103.379514 259.579482 
L 89.28276 307.584 
L 85.76502 306.978924 
z
" clip-path="url(#p66236f5618)" style="fill: #d3aa5f"/>
    <path d="M 232.192 286.164735 
L 299.890436 275.465035 
L 314.037312 275.465035 
L 232.192 288.400641 
L 182.55528 275.465035 
L 191.134935 275.465035 
z
" clip-path="url(#p66236f5618)" style="fill: #d3aa5f"/>
    <path d="M 334.737569 268.002448 
L 316.357853 259.579482 
L 334.737569 259.902036 
L 324.78558 259.579482 
z
M 332.452111 259.579482 
L 334.737569 259.653556 
L 330.516697 259.579482 
L 334.737569 261.513803 
z
" clip-path="url(#p66236f5618)" style="fill: #d3aa5f"/>
    <path d="M 232.192 268.976848 
L 275.042006 277.088376 
L 232.192 283.091384 
L 167.210834 277.088376 
z
M 178.503795 277.088376 
L 232.192 282.048132 
L 267.59518 277.088376 
L 232.192 270.386536 
z
" clip-path="url(#p66236f5618)" style="fill: #d3aa5f"/>
    <path d="M 118.90949 283.668747 
L 104.322914 286.596518 
L 98.524863 261.525673 
L 93.155382 177.4848 
L 98.524863 154.727419 
L 108.645924 177.4848 
L 118.90949 240.189877 
L 119.398138 286.596518 
z
M 119.207206 286.596518 
L 118.90949 258.322554 
L 110.022393 286.596518 
L 118.90949 284.812728 
z
M 105.677967 177.4848 
L 98.524863 161.40092 
L 94.729958 177.4848 
L 98.524863 236.881058 
z
" clip-path="url(#p66236f5618)" style="fill: #d3aa5f"/>
    <path d="M 85.76502 286.091926 
L 101.488829 286.596518 
L 85.76502 277.945243 
L 89.393206 286.596518 
z
" clip-path="url(#p66236f5618)" style="fill: #d3aa5f"/>
    <path d="M 232.192 245.09345 
L 278.072655 177.4848 
L 232.192 144.244149 
L 153.364417 177.4848 
z
M 167.767016 177.4848 
L 232.192 150.317554 
L 269.689794 177.4848 
L 232.192 232.740663 
z
" clip-path="url(#p66236f5618)" style="fill: #d3aa5f"/>
    <path d="M 414.72 213.719584 
L 374.245723 177.4848 
L 329.413166 101.071812 
L 346.111887 248.795859 
L 389.760402 210.879247 
L 386.768384 41.472 
L 414.72 60.820915 
L 371.58346 41.472 
L 394.004156 210.879247 
L 336.903903 248.795859 
L 386.03485 101.071812 
L 340.052812 177.4848 
z
M 369.352093 177.4848 
L 403.831415 101.071812 
L 353.821634 248.795859 
L 414.375854 210.879247 
L 391.908921 41.472 
L 414.72 51.70392 
L 399.938876 41.472 
L 414.305354 210.879247 
L 361.027742 248.795859 
L 382.338412 101.071812 
L 390.127762 177.4848 
L 414.72 199.501115 
z
" clip-path="url(#p66236f5618)" style="fill: #d3aa5f"/>
    <path d="M 118.90949 123.427815 
L 103.51161 248.795859 
L 98.524863 240.438079 
L 94.808537 210.879247 
L 98.524863 168.519817 
L 116.094527 41.472 
L 118.90949 55.204764 
L 119.225535 41.472 
L 119.637515 210.879247 
L 119.472299 248.795859 
z
M 119.243702 248.795859 
L 119.400318 210.879247 
L 118.992308 41.472 
L 118.90949 45.070578 
L 118.171848 41.472 
L 98.524863 183.541115 
L 96.126403 210.879247 
L 98.524863 229.956068 
L 109.7658 248.795859 
L 118.90949 174.348819 
z
" clip-path="url(#p66236f5618)" style="fill: #d3aa5f"/>
    <path d="M 232.192 192.810801 
L 265.533649 248.795859 
L 232.192 232.104947 
L 129.38368 248.795859 
z
M 153.083045 248.795859 
L 232.192 235.952535 
L 257.847735 248.795859 
L 232.192 205.716472 
z
" clip-path="url(#p66236f5618)" style="fill: #d3aa5f"/>
    <path d="M 334.737569 216.286468 
L 312.858693 210.879247 
L 334.737569 90.793501 
L 312.842988 210.879247 
z
M 327.462611 210.879247 
L 334.737569 170.978107 
L 327.467829 210.879247 
L 334.737569 212.675916 
z
" clip-path="url(#p66236f5618)" style="fill: #d3aa5f"/>
    <path d="M 232.192 106.868763 
L 319.291792 41.472 
L 232.192 81.30518 
L 156.864863 41.472 
z
M 178.581811 41.472 
L 232.192 69.821203 
L 294.180766 41.472 
L 232.192 88.014759 
z
" clip-path="url(#p66236f5618)" style="fill: #d3aa5f"/>
    <path d="M 85.76502 152.71 
L 95.59853 172.035012 
L 85.76502 172.035012 
L 87.827321 172.035012 
z
" clip-path="url(#p66236f5618)" style="fill: #d3aa5f"/>
    <path d="M 334.737569 78.703262 
L 313.833081 172.035012 
L 327.390362 172.035012 
L 334.737569 139.232119 
L 328.852118 172.035012 
L 317.992112 172.035012 
z
" clip-path="url(#p66236f5618)" style="fill: #d3aa5f"/>
   </g>
   <g id="PathCollection_7">
    <path d="M 85.76502 301.846941 
L 119.118667 307.584 
L 123.079171 259.579482 
L 154.501324 261.898541 
L 232.192 267.56716 
L 282.488832 277.088376 
L 232.192 284.134637 
L 155.917873 277.088376 
L 85.76502 267.429987 
L 94.677285 261.898541 
L 89.262572 259.579482 
L 87.964924 307.584 
z
M 86.980981 307.584 
L 88.339322 259.579482 
L 92.172234 261.898541 
L 85.76502 265.875214 
L 135.180988 261.898541 
L 113.229342 259.579482 
L 104.200714 307.584 
L 85.76502 304.412933 
z
M 167.210834 277.088376 
L 232.192 283.091384 
L 275.042006 277.088376 
L 232.192 268.976848 
z
" clip-path="url(#p66236f5618)" style="fill: #e1c684"/>
    <path d="M 232.192 288.400641 
L 314.037312 275.465035 
L 328.184189 275.465035 
L 232.192 290.636546 
L 173.975625 275.465035 
L 182.55528 275.465035 
z
" clip-path="url(#p66236f5618)" style="fill: #e1c684"/>
    <path d="M 414.72 275.465035 
L 401.005368 275.465035 
L 414.72 288.174359 
L 397.694144 275.465035 
z
" clip-path="url(#p66236f5618)" style="fill: #e1c684"/>
    <path d="M 334.737569 274.491093 
L 302.199009 259.579482 
L 334.737569 260.150515 
L 317.119049 259.579482 
z
M 324.78558 259.579482 
L 334.737569 259.902036 
L 316.357853 259.579482 
L 334.737569 268.002448 
z
" clip-path="url(#p66236f5618)" style="fill: #e1c684"/>
    <path d="M 187.376941 261.843564 
L 191.932998 261.898541 
L 187.376941 262.196641 
L 186.63639 261.898541 
z
" clip-path="url(#p66236f5618)" style="fill: #e1c684"/>
    <path d="M 118.90949 282.524765 
L 98.623436 286.596518 
L 98.524863 286.170287 
L 98.369615 286.596518 
L 85.76502 284.843529 
L 140.390733 286.596518 
L 232.192 257.446236 
L 286.455517 177.4848 
L 232.192 138.170745 
L 138.961817 177.4848 
L 85.76502 256.541332 
L 91.580805 177.4848 
L 98.524863 148.053918 
L 111.61388 177.4848 
L 118.90949 222.0572 
L 119.58907 286.596518 
z
M 119.398138 286.596518 
L 118.90949 240.189877 
L 108.645924 177.4848 
L 98.524863 154.727419 
L 93.155382 177.4848 
L 98.524863 261.525673 
L 104.322914 286.596518 
L 118.90949 283.668747 
z
M 89.393206 286.596518 
L 85.76502 277.945243 
L 101.488829 286.596518 
L 85.76502 286.091926 
z
M 153.364417 177.4848 
L 232.192 144.244149 
L 278.072655 177.4848 
L 232.192 245.09345 
z
" clip-path="url(#p66236f5618)" style="fill: #e1c684"/>
    <path d="M 414.72 227.938053 
L 358.363684 177.4848 
L 276.48792 101.071812 
L 331.196033 248.795859 
L 365.215451 210.879247 
L 373.597892 41.472 
L 414.72 69.937909 
L 351.257999 41.472 
L 373.632458 210.879247 
L 319.986172 248.795859 
L 368.238286 101.071812 
L 310.753531 177.4848 
z
M 340.052812 177.4848 
L 386.03485 101.071812 
L 336.903903 248.795859 
L 394.004156 210.879247 
L 371.58346 41.472 
L 414.72 60.820915 
L 386.768384 41.472 
L 389.760402 210.879247 
L 346.111887 248.795859 
L 329.413166 101.071812 
L 374.245723 177.4848 
L 414.72 213.719584 
z
" clip-path="url(#p66236f5618)" style="fill: #e1c684"/>
    <path d="M 118.90949 115.269839 
L 117.405082 101.071812 
L 98.524863 244.662484 
L 96.045991 248.795859 
L 93.490672 210.879247 
L 98.524863 153.498518 
L 114.017205 41.472 
L 118.90949 65.33895 
L 119.458762 41.472 
L 119.874712 210.879247 
L 119.700896 248.795859 
L 119.109345 101.071812 
z
M 119.472299 248.795859 
L 119.637515 210.879247 
L 119.225535 41.472 
L 118.90949 55.204764 
L 116.094527 41.472 
L 98.524863 168.519817 
L 94.808537 210.879247 
L 98.524863 240.438079 
L 103.51161 248.795859 
L 118.90949 123.427815 
z
" clip-path="url(#p66236f5618)" style="fill: #e1c684"/>
    <path d="M 232.192 179.905131 
L 273.219562 248.795859 
L 232.192 228.25736 
L 105.684315 248.795859 
z
M 129.38368 248.795859 
L 232.192 232.104947 
L 265.533649 248.795859 
L 232.192 192.810801 
z
" clip-path="url(#p66236f5618)" style="fill: #e1c684"/>
    <path d="M 334.737569 219.89702 
L 298.249556 210.879247 
L 327.646391 41.472 
L 300.2758 172.035012 
L 313.833081 172.035012 
L 334.737569 78.703262 
L 317.992112 172.035012 
L 307.132105 172.035012 
L 232.192 92.789158 
L 135.147914 41.472 
L 232.192 125.722767 
L 298.223365 210.879247 
z
M 312.842988 210.879247 
L 334.737569 90.793501 
L 312.858693 210.879247 
L 334.737569 216.286468 
z
M 156.864863 41.472 
L 232.192 81.30518 
L 319.291792 41.472 
L 232.192 106.868763 
z
" clip-path="url(#p66236f5618)" style="fill: #e1c684"/>
    <path d="M 85.76502 118.733132 
L 112.887621 172.035012 
L 95.59853 172.035012 
L 85.76502 152.71 
L 87.827321 172.035012 
L 91.453219 172.035012 
z
" clip-path="url(#p66236f5618)" style="fill: #e1c684"/>
   </g>
   <g id="PathCollection_8">
    <path d="M 85.76502 299.28095 
L 134.03662 307.584 
L 132.929 259.579482 
L 173.82166 261.898541 
L 232.192 266.157472 
L 289.935659 277.088376 
L 232.192 285.177889 
L 179.292636 286.596518 
L 232.192 269.799022 
L 294.838378 177.4848 
L 232.192 132.097341 
L 124.559218 177.4848 
L 85.76502 235.13742 
L 90.006229 177.4848 
L 98.524863 141.380416 
L 114.581836 177.4848 
L 118.90949 203.924524 
L 119.780001 286.596518 
L 118.90949 281.380784 
L 98.524863 285.676353 
L 85.76502 283.595132 
L 144.624912 277.088376 
L 85.76502 268.984761 
L 97.182336 261.898541 
L 90.185822 259.579482 
L 88.948866 307.584 
z
M 87.964924 307.584 
L 89.262572 259.579482 
L 94.677285 261.898541 
L 85.76502 267.429987 
L 155.917873 277.088376 
L 232.192 284.134637 
L 282.488832 277.088376 
L 232.192 267.56716 
L 154.501324 261.898541 
L 123.079171 259.579482 
L 119.118667 307.584 
L 85.76502 301.846941 
z
M 119.58907 286.596518 
L 118.90949 222.0572 
L 111.61388 177.4848 
L 98.524863 148.053918 
L 91.580805 177.4848 
L 85.76502 256.541332 
L 138.961817 177.4848 
L 232.192 138.170745 
L 286.455517 177.4848 
L 232.192 257.446236 
L 140.390733 286.596518 
L 85.76502 284.843529 
L 98.369615 286.596518 
L 98.524863 286.170287 
L 98.623436 286.596518 
L 118.90949 282.524765 
z
" clip-path="url(#p66236f5618)" style="fill: #ecd8a5"/>
    <path d="M 232.192 290.636546 
L 328.184189 275.465035 
L 334.737569 275.465035 
L 324.384244 275.465035 
L 334.737569 279.183094 
L 232.192 292.872452 
L 165.39597 275.465035 
L 173.975625 275.465035 
z
" clip-path="url(#p66236f5618)" style="fill: #ecd8a5"/>
    <path d="M 187.376941 305.911696 
L 366.20546 275.465035 
L 397.694144 275.465035 
L 414.72 288.174359 
L 401.005368 275.465035 
L 375.640668 275.465035 
L 402.523196 307.584 
L 414.72 305.559592 
L 187.376941 305.558032 
L 185.785563 307.584 
z
" clip-path="url(#p66236f5618)" style="fill: #ecd8a5"/>
    <path d="M 334.737569 280.979739 
L 288.040166 259.579482 
L 334.737569 260.398995 
L 309.452518 259.579482 
z
M 317.119049 259.579482 
L 334.737569 260.150515 
L 302.199009 259.579482 
L 334.737569 274.491093 
z
" clip-path="url(#p66236f5618)" style="fill: #ecd8a5"/>
    <path d="M 100.039236 261.898541 
L 100.703373 262.536692 
L 100.703373 261.898541 
L 100.703373 261.85495 
z
" clip-path="url(#p66236f5618)" style="fill: #ecd8a5"/>
    <path d="M 187.376941 261.563326 
L 215.1567 261.898541 
L 187.376941 263.716153 
L 182.861563 261.898541 
z
M 186.63639 261.898541 
L 187.376941 262.196641 
L 191.932998 261.898541 
L 187.376941 261.843564 
z
" clip-path="url(#p66236f5618)" style="fill: #ecd8a5"/>
    <path d="M 239.505569 261.682063 
L 239.505569 261.898541 
L 239.505569 263.17742 
L 246.321667 261.898541 
z
" clip-path="url(#p66236f5618)" style="fill: #ecd8a5"/>
    <path d="M 99.829963 286.596518 
L 98.894654 177.4848 
L 100.703373 170.121388 
L 100.703373 177.4848 
L 100.703373 286.596518 
L 100.703373 286.370857 
z
" clip-path="url(#p66236f5618)" style="fill: #ecd8a5"/>
    <path d="M 414.72 242.156523 
L 342.481645 177.4848 
L 239.505569 104.464305 
L 239.505569 101.071812 
L 239.505569 109.239239 
L 316.280178 248.795859 
L 340.6705 210.879247 
L 360.427399 41.472 
L 414.72 79.054904 
L 330.932538 41.472 
L 353.26076 210.879247 
L 303.068442 248.795859 
L 350.441721 101.071812 
L 281.45425 177.4848 
z
M 310.753531 177.4848 
L 368.238286 101.071812 
L 319.986172 248.795859 
L 373.632458 210.879247 
L 351.257999 41.472 
L 414.72 69.937909 
L 373.597892 41.472 
L 365.215451 210.879247 
L 331.196033 248.795859 
L 276.48792 101.071812 
L 358.363684 177.4848 
L 414.72 227.938053 
z
" clip-path="url(#p66236f5618)" style="fill: #ecd8a5"/>
    <path d="M 118.90949 140.579756 
L 114.72327 101.071812 
L 98.524863 224.266367 
L 85.76502 236.37856 
L 232.192 166.99946 
L 280.905476 248.795859 
L 232.192 224.409772 
L 85.76502 247.59155 
L 92.172806 210.879247 
L 98.524863 138.47722 
L 111.939884 41.472 
L 118.90949 75.473136 
L 119.691989 41.472 
L 120.111908 210.879247 
L 119.929494 248.795859 
L 119.465614 101.071812 
z
M 119.109345 101.071812 
L 119.700896 248.795859 
L 119.874712 210.879247 
L 119.458762 41.472 
L 118.90949 65.33895 
L 114.017205 41.472 
L 98.524863 153.498518 
L 93.490672 210.879247 
L 96.045991 248.795859 
L 98.524863 244.662484 
L 117.405082 101.071812 
L 118.90949 115.269839 
z
M 105.684315 248.795859 
L 232.192 228.25736 
L 273.219562 248.795859 
L 232.192 179.905131 
z
" clip-path="url(#p66236f5618)" style="fill: #ecd8a5"/>
    <path d="M 334.737569 223.507573 
L 283.64042 210.879247 
L 309.222991 41.472 
L 286.718519 172.035012 
L 300.2758 172.035012 
L 327.646391 41.472 
L 298.249556 210.879247 
L 334.737569 219.89702 
L 298.223365 210.879247 
L 232.192 125.722767 
L 135.147914 41.472 
L 232.192 92.789158 
L 307.132105 172.035012 
L 296.272099 172.035012 
L 232.192 104.273135 
L 130.176712 172.035012 
L 112.887621 172.035012 
L 85.76502 118.733132 
L 91.453219 172.035012 
L 95.079117 172.035012 
L 85.76502 84.756265 
L 113.430965 41.472 
L 232.192 144.576771 
L 283.603742 210.879247 
z
" clip-path="url(#p66236f5618)" style="fill: #ecd8a5"/>
   </g>
   <g id="PathCollection_9">
    <path d="M 98.524863 275.465035 
L 97.576409 275.465035 
L 98.524863 277.73792 
L 100.022896 275.465035 
z
" clip-path="url(#p66236f5618)" style="fill: #f6e9c5"/>
    <path d="M 85.76502 296.714959 
L 148.954573 307.584 
L 142.778828 259.579482 
L 193.141996 261.898541 
L 232.192 264.747784 
L 297.382485 277.088376 
L 232.192 286.221141 
L 218.19454 286.596518 
L 232.192 282.151809 
L 303.221239 177.4848 
L 334.737569 108.439453 
L 327.707446 101.071812 
L 334.737569 110.324285 
L 325.615024 101.071812 
L 232.192 126.023937 
L 110.156618 177.4848 
L 85.76502 213.733508 
L 88.431652 177.4848 
L 98.524863 134.706915 
L 112.041459 101.071812 
L 98.524863 203.870249 
L 85.76502 158.527596 
L 232.192 154.093789 
L 288.59139 248.795859 
L 334.737569 227.118125 
L 269.031283 210.879247 
L 290.799592 41.472 
L 273.161238 172.035012 
L 286.718519 172.035012 
L 309.222991 41.472 
L 283.64042 210.879247 
L 334.737569 223.507573 
L 283.603742 210.879247 
L 232.192 144.576771 
L 113.430965 41.472 
L 85.76502 84.756265 
L 95.079117 172.035012 
L 98.524863 172.035012 
L 98.642933 172.035012 
L 98.524863 170.85717 
L 85.76502 50.779398 
L 91.714016 41.472 
L 232.192 163.430775 
L 268.984119 210.879247 
L 232.192 220.562185 
L 85.76502 240.041067 
L 90.85494 210.879247 
L 98.524863 123.455922 
L 109.862562 41.472 
L 118.90949 85.607322 
L 119.925216 41.472 
L 120.349105 210.879247 
L 120.158091 248.795859 
L 119.821883 101.071812 
L 118.90949 165.889674 
L 117.549793 177.4848 
L 118.90949 185.791847 
L 119.970933 286.596518 
L 118.90949 280.236803 
L 98.524863 284.739994 
L 85.76502 282.346734 
L 133.331951 277.088376 
L 85.76502 270.539535 
L 98.524863 262.714821 
L 100.114951 261.898541 
L 98.524863 261.771874 
L 91.109072 259.579482 
L 89.932809 307.584 
z
M 88.948866 307.584 
L 90.185822 259.579482 
L 97.182336 261.898541 
L 85.76502 268.984761 
L 144.624912 277.088376 
L 85.76502 283.595132 
L 98.524863 285.676353 
L 118.90949 281.380784 
L 119.780001 286.596518 
L 118.90949 203.924524 
L 114.581836 177.4848 
L 98.524863 141.380416 
L 90.006229 177.4848 
L 85.76502 235.13742 
L 124.559218 177.4848 
L 232.192 132.097341 
L 294.838378 177.4848 
L 232.192 269.799022 
L 179.292636 286.596518 
L 232.192 285.177889 
L 289.935659 277.088376 
L 232.192 266.157472 
L 173.82166 261.898541 
L 132.929 259.579482 
L 134.03662 307.584 
L 85.76502 299.28095 
z
M 119.465614 101.071812 
L 119.929494 248.795859 
L 120.111908 210.879247 
L 119.691989 41.472 
L 118.90949 75.473136 
L 111.939884 41.472 
L 98.524863 138.47722 
L 92.172806 210.879247 
L 85.76502 247.59155 
L 232.192 224.409772 
L 280.905476 248.795859 
L 232.192 166.99946 
L 85.76502 236.37856 
L 98.524863 224.266367 
L 114.72327 101.071812 
L 118.90949 140.579756 
z
" clip-path="url(#p66236f5618)" style="fill: #f6e9c5"/>
    <path d="M 232.192 292.872452 
L 334.737569 279.183094 
L 324.384244 275.465035 
L 305.095738 275.465035 
L 334.737569 286.109932 
L 232.192 295.108358 
L 156.816315 275.465035 
L 165.39597 275.465035 
z
" clip-path="url(#p66236f5618)" style="fill: #f6e9c5"/>
    <path d="M 187.376941 300.550553 
L 334.716776 275.465035 
L 366.20546 275.465035 
L 187.376941 305.911696 
L 185.785563 307.584 
L 187.376941 305.558032 
L 414.72 305.559592 
L 402.523196 307.584 
L 375.640668 275.465035 
L 350.275968 275.465035 
L 332.526488 307.584 
L 414.72 293.941637 
L 187.376941 299.063101 
L 180.683856 307.584 
z
" clip-path="url(#p66236f5618)" style="fill: #f6e9c5"/>
    <path d="M 334.737569 287.468384 
L 273.881322 259.579482 
L 334.737569 260.647474 
L 301.785987 259.579482 
z
M 309.452518 259.579482 
L 334.737569 260.398995 
L 288.040166 259.579482 
L 334.737569 280.979739 
z
" clip-path="url(#p66236f5618)" style="fill: #f6e9c5"/>
    <path d="M 95.660906 261.898541 
L 100.703373 266.743709 
L 100.703373 262.536692 
L 100.039236 261.898541 
L 100.703373 261.85495 
L 100.703373 261.567573 
z
" clip-path="url(#p66236f5618)" style="fill: #f6e9c5"/>
    <path d="M 187.376941 261.283088 
L 238.380402 261.898541 
L 187.376941 265.235666 
L 179.086735 261.898541 
z
M 182.861563 261.898541 
L 187.376941 263.716153 
L 215.1567 261.898541 
L 187.376941 261.563326 
z
" clip-path="url(#p66236f5618)" style="fill: #f6e9c5"/>
    <path d="M 239.505569 261.059666 
L 239.505569 261.682063 
L 246.321667 261.898541 
L 239.505569 263.17742 
L 239.505569 266.854324 
L 265.91862 261.898541 
z
" clip-path="url(#p66236f5618)" style="fill: #f6e9c5"/>
    <path d="M 89.443022 286.596518 
L 90.796144 177.4848 
L 100.703373 137.151816 
L 100.703373 170.121388 
L 98.894654 177.4848 
L 99.829963 286.596518 
L 100.703373 286.370857 
L 100.703373 283.687212 
z
" clip-path="url(#p66236f5618)" style="fill: #f6e9c5"/>
    <path d="M 414.72 256.374992 
L 326.599606 177.4848 
L 239.505569 115.726284 
L 239.505569 104.464305 
L 342.481645 177.4848 
L 414.72 242.156523 
L 281.45425 177.4848 
L 350.441721 101.071812 
L 303.068442 248.795859 
L 353.26076 210.879247 
L 330.932538 41.472 
L 414.72 79.054904 
L 360.427399 41.472 
L 340.6705 210.879247 
L 316.280178 248.795859 
L 239.505569 109.239239 
L 239.505569 136.35245 
L 301.364324 248.795859 
L 316.125549 210.879247 
L 347.256907 41.472 
L 414.72 88.171899 
L 310.607077 41.472 
L 332.889062 210.879247 
L 286.150711 248.795859 
L 332.645156 101.071812 
L 252.15497 177.4848 
z
" clip-path="url(#p66236f5618)" style="fill: #f6e9c5"/>
    <path d="M 100.377004 248.795859 
L 100.703373 247.602149 
L 100.703373 248.795859 
L 100.703373 240.25998 
z
" clip-path="url(#p66236f5618)" style="fill: #f6e9c5"/>
    <path d="M 232.192 104.273135 
L 296.272099 172.035012 
L 285.412093 172.035012 
L 232.192 115.757112 
L 147.465803 172.035012 
L 130.176712 172.035012 
z
" clip-path="url(#p66236f5618)" style="fill: #f6e9c5"/>
   </g>
   <g id="PathCollection_10">
    <path d="M 98.524863 277.73792 
L 97.576409 275.465035 
L 96.150149 275.465035 
L 98.524863 281.155825 
L 102.275601 275.465035 
L 100.022896 275.465035 
z
" clip-path="url(#p66236f5618)" style="fill: #f5efdc"/>
    <path d="M 85.76502 294.148967 
L 148.23666 275.465035 
L 156.816315 275.465035 
L 232.192 295.108358 
L 334.737569 286.109932 
L 305.095738 275.465035 
L 285.807231 275.465035 
L 334.737569 293.03677 
L 232.192 297.344264 
L 163.872527 307.584 
L 152.628657 259.579482 
L 212.462332 261.898541 
L 232.192 263.338096 
L 304.829311 277.088376 
L 268.492343 286.596518 
L 311.604101 177.4848 
L 334.737569 126.804459 
L 310.18376 101.071812 
L 334.737569 133.387529 
L 296.277304 248.795859 
L 334.737569 230.728678 
L 254.422146 210.879247 
L 272.376192 41.472 
L 259.603957 172.035012 
L 273.161238 172.035012 
L 290.799592 41.472 
L 269.031283 210.879247 
L 334.737569 227.118125 
L 288.59139 248.795859 
L 232.192 154.093789 
L 85.76502 158.527596 
L 98.524863 203.870249 
L 112.041459 101.071812 
L 98.524863 134.706915 
L 88.431652 177.4848 
L 85.76502 213.733508 
L 110.156618 177.4848 
L 232.192 126.023937 
L 325.615024 101.071812 
L 334.737569 110.324285 
L 327.707446 101.071812 
L 334.737569 108.439453 
L 303.221239 177.4848 
L 232.192 282.151809 
L 218.19454 286.596518 
L 232.192 286.221141 
L 297.382485 277.088376 
L 232.192 264.747784 
L 193.141996 261.898541 
L 142.778828 259.579482 
L 148.954573 307.584 
L 85.76502 296.714959 
L 89.932809 307.584 
L 91.109072 259.579482 
L 98.524863 261.771874 
L 100.114951 261.898541 
L 98.524863 262.714821 
L 85.76502 270.539535 
L 133.331951 277.088376 
L 85.76502 282.346734 
L 98.524863 284.739994 
L 118.90949 280.236803 
L 119.970933 286.596518 
L 118.90949 185.791847 
L 117.549793 177.4848 
L 118.90949 165.889674 
L 119.821883 101.071812 
L 120.158091 248.795859 
L 120.349105 210.879247 
L 119.925216 41.472 
L 118.90949 85.607322 
L 109.862562 41.472 
L 98.524863 123.455922 
L 90.85494 210.879247 
L 85.76502 240.041067 
L 232.192 220.562185 
L 268.984119 210.879247 
L 232.192 163.430775 
L 91.714016 41.472 
L 85.76502 50.779398 
L 98.524863 170.85717 
L 98.642933 172.035012 
L 101.019313 172.035012 
L 98.524863 147.150897 
L 87.552183 41.472 
L 98.524863 108.434623 
L 107.785241 41.472 
L 118.90949 95.741509 
L 120.158444 41.472 
L 120.586301 210.879247 
L 120.386688 248.795859 
L 120.178151 101.071812 
L 119.078895 177.4848 
L 120.161864 286.596518 
L 118.90949 279.092822 
L 98.524863 283.803635 
L 85.76502 281.098337 
L 122.03899 277.088376 
L 85.76502 272.094309 
L 98.524863 264.47377 
L 103.541331 261.898541 
L 98.524863 261.498926 
L 92.032322 259.579482 
L 90.916751 307.584 
z
M 86.857076 177.4848 
L 85.76502 122.02187 
L 95.754019 177.4848 
L 85.76502 192.329596 
z
M 109.359647 101.071812 
L 98.524863 183.474132 
L 86.542037 101.071812 
L 98.524863 128.033414 
z
M 97.146609 101.071812 
L 232.192 141.188119 
L 302.875646 101.071812 
L 232.192 119.950532 
z
M 89.537075 210.879247 
L 85.76502 75.750216 
L 232.192 182.284779 
L 254.364496 210.879247 
L 232.192 216.714597 
L 85.76502 232.490585 
z
" clip-path="url(#p66236f5618)" style="fill: #f5efdc"/>
    <path d="M 187.376941 295.18941 
L 303.228092 275.465035 
L 334.716776 275.465035 
L 187.376941 300.550553 
L 180.683856 307.584 
L 187.376941 299.063101 
L 414.72 293.941637 
L 332.526488 307.584 
L 350.275968 275.465035 
L 324.911268 275.465035 
L 262.529781 307.584 
L 414.72 282.323682 
L 187.376941 292.568169 
L 175.58215 307.584 
z
" clip-path="url(#p66236f5618)" style="fill: #f5efdc"/>
    <path d="M 334.737569 293.957029 
L 259.722478 259.579482 
L 334.737569 260.895954 
L 294.119456 259.579482 
z
M 301.785987 259.579482 
L 334.737569 260.647474 
L 273.881322 259.579482 
L 334.737569 287.468384 
z
" clip-path="url(#p66236f5618)" style="fill: #f5efdc"/>
    <path d="M 91.282576 261.898541 
L 100.703373 270.950727 
L 100.703373 266.743709 
L 95.660906 261.898541 
L 100.703373 261.567573 
L 100.703373 261.280196 
z
" clip-path="url(#p66236f5618)" style="fill: #f5efdc"/>
    <path d="M 187.376941 261.00285 
L 261.604103 261.898541 
L 187.376941 266.755178 
L 175.311907 261.898541 
z
M 179.086735 261.898541 
L 187.376941 265.235666 
L 238.380402 261.898541 
L 187.376941 261.283088 
z
" clip-path="url(#p66236f5618)" style="fill: #f5efdc"/>
    <path d="M 239.505569 260.43727 
L 239.505569 261.059666 
L 265.91862 261.898541 
L 239.505569 266.854324 
L 239.505569 270.531227 
L 285.515573 261.898541 
z
" clip-path="url(#p66236f5618)" style="fill: #f5efdc"/>
    <path d="M 79.05608 286.596518 
L 82.697634 177.4848 
L 100.703373 104.182243 
L 100.703373 137.151816 
L 90.796144 177.4848 
L 89.443022 286.596518 
L 100.703373 283.687212 
L 100.703373 281.003567 
z
" clip-path="url(#p66236f5618)" style="fill: #f5efdc"/>
    <path d="M 414.72 270.593461 
L 310.717566 177.4848 
L 239.505569 126.988262 
L 239.505569 115.726284 
L 326.599606 177.4848 
L 414.72 256.374992 
L 252.15497 177.4848 
L 332.645156 101.071812 
L 286.150711 248.795859 
L 332.889062 210.879247 
L 310.607077 41.472 
L 414.72 88.171899 
L 347.256907 41.472 
L 316.125549 210.879247 
L 301.364324 248.795859 
L 239.505569 136.35245 
L 239.505569 163.465662 
L 286.448469 248.795859 
L 291.580597 210.879247 
L 334.086414 41.472 
L 414.72 97.288893 
L 290.281616 41.472 
L 312.517365 210.879247 
L 269.23298 248.795859 
L 314.848591 101.071812 
L 222.855689 177.4848 
z
" clip-path="url(#p66236f5618)" style="fill: #f5efdc"/>
    <path d="M 95.513943 248.795859 
L 100.703373 229.81528 
L 100.703373 247.602149 
L 100.377004 248.795859 
L 100.703373 240.25998 
L 100.703373 113.071125 
z
" clip-path="url(#p66236f5618)" style="fill: #f5efdc"/>
    <path d="M 232.192 115.757112 
L 285.412093 172.035012 
L 274.552087 172.035012 
L 232.192 127.24109 
L 164.754894 172.035012 
L 147.465803 172.035012 
z
" clip-path="url(#p66236f5618)" style="fill: #f5efdc"/>
    <path d="M 239.505569 164.054079 
L 239.505569 172.035012 
L 248.958666 172.035012 
z
" clip-path="url(#p66236f5618)" style="fill: #f5efdc"/>
   </g>
   <g id="PathCollection_11">
    <path d="M 98.524863 281.155825 
L 96.150149 275.465035 
L 94.723888 275.465035 
L 98.524863 284.57373 
L 104.528305 275.465035 
L 102.275601 275.465035 
z
" clip-path="url(#p66236f5618)" style="fill: #f4f5f5"/>
    <path d="M 85.76502 291.582976 
L 139.657005 275.465035 
L 148.23666 275.465035 
L 85.76502 294.148967 
L 90.916751 307.584 
L 92.032322 259.579482 
L 98.524863 261.498926 
L 103.541331 261.898541 
L 98.524863 264.47377 
L 85.76502 272.094309 
L 122.03899 277.088376 
L 85.76502 281.098337 
L 98.524863 283.803635 
L 118.90949 279.092822 
L 120.161864 286.596518 
L 119.078895 177.4848 
L 120.178151 101.071812 
L 120.386688 248.795859 
L 120.586301 210.879247 
L 120.158444 41.472 
L 118.90949 95.741509 
L 107.785241 41.472 
L 98.524863 108.434623 
L 87.552183 41.472 
L 98.524863 147.150897 
L 101.019313 172.035012 
L 103.395694 172.035012 
L 98.524863 123.444624 
L 90.013614 41.472 
L 98.524863 93.413325 
L 105.707919 41.472 
L 118.90949 105.875695 
L 120.391671 41.472 
L 120.823498 210.879247 
L 120.615286 248.795859 
L 120.53442 101.071812 
L 119.391522 177.4848 
L 120.352796 286.596518 
L 118.90949 277.94884 
L 98.524863 282.867276 
L 85.76502 279.84994 
L 110.746029 277.088376 
L 85.76502 273.649082 
L 98.524863 266.23272 
L 106.967712 261.898541 
L 98.524863 261.225978 
L 92.955572 259.579482 
L 91.900694 307.584 
z
" clip-path="url(#p66236f5618)" style="fill: #f4f5f5"/>
    <path d="M 232.192 297.344264 
L 334.737569 293.03677 
L 285.807231 275.465035 
L 266.518725 275.465035 
L 334.737569 299.963608 
L 232.192 299.58017 
L 178.79048 307.584 
L 162.478486 259.579482 
L 231.782669 261.898541 
L 232.192 261.928408 
L 312.276137 277.088376 
L 325.195174 286.596518 
L 319.986962 177.4848 
L 334.737569 145.169465 
L 292.660074 101.071812 
L 334.737569 156.450774 
L 303.963218 248.795859 
L 334.737569 234.33923 
L 239.81301 210.879247 
L 253.952793 41.472 
L 246.046677 172.035012 
L 259.603957 172.035012 
L 272.376192 41.472 
L 254.422146 210.879247 
L 334.737569 230.728678 
L 296.277304 248.795859 
L 334.737569 133.387529 
L 310.18376 101.071812 
L 334.737569 126.804459 
L 311.604101 177.4848 
L 268.492343 286.596518 
L 304.829311 277.088376 
L 232.192 263.338096 
L 212.462332 261.898541 
L 152.628657 259.579482 
L 163.872527 307.584 
z
" clip-path="url(#p66236f5618)" style="fill: #f4f5f5"/>
    <path d="M 187.376941 289.828267 
L 271.739408 275.465035 
L 303.228092 275.465035 
L 187.376941 295.18941 
L 175.58215 307.584 
L 187.376941 292.568169 
L 414.72 282.323682 
L 262.529781 307.584 
L 324.911268 275.465035 
L 299.546568 275.465035 
L 239.505569 300.489617 
L 239.505569 307.584 
L 239.505569 276.882372 
L 414.72 270.705727 
L 187.376941 286.073238 
L 170.480443 307.584 
z
" clip-path="url(#p66236f5618)" style="fill: #f4f5f5"/>
    <path d="M 334.737569 300.445675 
L 245.563634 259.579482 
L 334.737569 261.144433 
L 286.452925 259.579482 
z
M 294.119456 259.579482 
L 334.737569 260.895954 
L 259.722478 259.579482 
L 334.737569 293.957029 
z
" clip-path="url(#p66236f5618)" style="fill: #f4f5f5"/>
    <path d="M 86.904246 261.898541 
L 100.703373 275.157745 
L 100.703373 270.950727 
L 91.282576 261.898541 
L 100.703373 261.280196 
L 100.703373 260.992819 
z
" clip-path="url(#p66236f5618)" style="fill: #f4f5f5"/>
    <path d="M 187.376941 260.722613 
L 284.827805 261.898541 
L 187.376941 268.27469 
L 171.537079 261.898541 
z
M 175.311907 261.898541 
L 187.376941 266.755178 
L 261.604103 261.898541 
L 187.376941 261.00285 
z
" clip-path="url(#p66236f5618)" style="fill: #f4f5f5"/>
    <path d="M 239.505569 259.814874 
L 239.505569 260.43727 
L 285.515573 261.898541 
L 239.505569 270.531227 
L 239.505569 274.208131 
L 305.112527 261.898541 
z
" clip-path="url(#p66236f5618)" style="fill: #f4f5f5"/>
    <path d="M 68.669139 286.596518 
L 74.599123 177.4848 
L 90.792097 101.071812 
L 90.650882 248.795859 
L 100.703373 212.028411 
L 100.703373 229.81528 
L 95.513943 248.795859 
L 100.703373 113.071125 
L 100.703373 101.071812 
L 100.703373 104.182243 
L 82.697634 177.4848 
L 79.05608 286.596518 
L 100.703373 281.003567 
L 100.703373 278.319921 
z
" clip-path="url(#p66236f5618)" style="fill: #f4f5f5"/>
    <path d="M 85.76502 192.329596 
L 95.754019 177.4848 
L 85.76502 122.02187 
L 86.857076 177.4848 
z
" clip-path="url(#p66236f5618)" style="fill: #f4f5f5"/>
    <path d="M 414.72 284.81193 
L 294.835527 177.4848 
L 239.505569 138.250241 
L 239.505569 126.988262 
L 310.717566 177.4848 
L 414.72 270.593461 
L 222.855689 177.4848 
L 314.848591 101.071812 
L 269.23298 248.795859 
L 312.517365 210.879247 
L 290.281616 41.472 
L 414.72 97.288893 
L 334.086414 41.472 
L 291.580597 210.879247 
L 286.448469 248.795859 
L 239.505569 163.465662 
L 239.505569 190.578874 
L 271.532615 248.795859 
L 267.035646 210.879247 
L 320.915922 41.472 
L 414.72 106.405888 
L 269.956155 41.472 
L 292.145667 210.879247 
L 252.315249 248.795859 
L 297.052027 101.071812 
L 193.556408 177.4848 
z
" clip-path="url(#p66236f5618)" style="fill: #f4f5f5"/>
    <path d="M 98.524863 128.033414 
L 86.542037 101.071812 
L 98.524863 183.474132 
L 109.359647 101.071812 
z
M 106.677835 101.071812 
L 98.524863 163.078014 
L 89.508011 101.071812 
L 98.524863 121.359912 
z
" clip-path="url(#p66236f5618)" style="fill: #f4f5f5"/>
    <path d="M 232.192 119.950532 
L 302.875646 101.071812 
L 232.192 141.188119 
L 97.146609 101.071812 
z
M 140.591569 101.071812 
L 232.192 128.282448 
L 280.136269 101.071812 
L 232.192 113.877128 
z
" clip-path="url(#p66236f5618)" style="fill: #f4f5f5"/>
    <path d="M 85.76502 232.490585 
L 232.192 216.714597 
L 254.364496 210.879247 
L 232.192 182.284779 
L 85.76502 75.750216 
L 89.537075 210.879247 
z
M 88.219209 210.879247 
L 85.76502 122.961057 
L 232.192 201.138783 
L 239.744874 210.879247 
L 232.192 212.86701 
L 85.76502 224.940102 
z
" clip-path="url(#p66236f5618)" style="fill: #f4f5f5"/>
    <path d="M 97.434595 41.472 
L 100.703373 59.556228 
L 100.703373 41.472 
L 100.703373 186.781847 
z
" clip-path="url(#p66236f5618)" style="fill: #f4f5f5"/>
    <path d="M 232.192 127.24109 
L 274.552087 172.035012 
L 263.69208 172.035012 
L 232.192 138.725067 
L 182.043985 172.035012 
L 164.754894 172.035012 
z
" clip-path="url(#p66236f5618)" style="fill: #f4f5f5"/>
    <path d="M 239.505569 146.984383 
L 239.505569 164.054079 
L 248.958666 172.035012 
L 269.177043 172.035012 
z
" clip-path="url(#p66236f5618)" style="fill: #f4f5f5"/>
   </g>
   <g id="PathCollection_12">
    <path d="M 98.524863 284.57373 
L 94.723888 275.465035 
L 93.297628 275.465035 
L 98.524863 287.991636 
L 106.781009 275.465035 
L 104.528305 275.465035 
z
" clip-path="url(#p66236f5618)" style="fill: #def0ed"/>
    <path d="M 85.76502 289.016985 
L 131.07735 275.465035 
L 139.657005 275.465035 
L 85.76502 291.582976 
L 91.900694 307.584 
L 92.955572 259.579482 
L 98.524863 261.225978 
L 106.967712 261.898541 
L 98.524863 266.23272 
L 85.76502 273.649082 
L 110.746029 277.088376 
L 85.76502 279.84994 
L 98.524863 282.867276 
L 118.90949 277.94884 
L 120.352796 286.596518 
L 119.391522 177.4848 
L 120.53442 101.071812 
L 120.615286 248.795859 
L 120.823498 210.879247 
L 120.391671 41.472 
L 118.90949 105.875695 
L 105.707919 41.472 
L 98.524863 93.413325 
L 90.013614 41.472 
L 98.524863 123.444624 
L 103.395694 172.035012 
L 105.772074 172.035012 
L 118.90949 116.009881 
L 120.624898 41.472 
L 121.060694 210.879247 
L 120.843883 248.795859 
L 120.890689 101.071812 
L 119.70415 177.4848 
L 120.543727 286.596518 
L 119.007542 277.088376 
L 118.90949 275.710972 
L 117.977301 277.088376 
L 98.524863 281.930917 
L 85.76502 278.601542 
L 99.453068 277.088376 
L 85.76502 275.203856 
L 98.524863 267.991669 
L 110.394092 261.898541 
L 98.524863 260.95303 
L 93.878822 259.579482 
L 92.884636 307.584 
z
M 103.630598 41.472 
L 98.524863 99.738351 
L 92.475045 41.472 
L 98.524863 78.392027 
z
" clip-path="url(#p66236f5618)" style="fill: #def0ed"/>
    <path d="M 232.192 299.58017 
L 334.737569 299.963608 
L 266.518725 275.465035 
L 247.230218 275.465035 
L 334.737569 306.890446 
L 232.192 301.816075 
L 193.708433 307.584 
L 172.328314 259.579482 
L 232.192 261.57686 
L 278.786394 259.579482 
L 334.737569 306.93432 
L 231.404791 259.579482 
L 334.737569 261.392912 
L 265.497512 261.898541 
L 319.722963 277.088376 
L 334.737569 283.819775 
L 314.678204 286.596518 
L 334.737569 229.568925 
L 328.369823 177.4848 
L 334.737569 163.53447 
L 275.136387 101.071812 
L 334.737569 179.514018 
L 311.649132 248.795859 
L 334.737569 237.949782 
L 225.203873 210.879247 
L 235.529393 41.472 
L 232.489396 172.035012 
L 246.046677 172.035012 
L 253.952793 41.472 
L 239.81301 210.879247 
L 334.737569 234.33923 
L 303.963218 248.795859 
L 334.737569 156.450774 
L 292.660074 101.071812 
L 334.737569 145.169465 
L 319.986962 177.4848 
L 325.195174 286.596518 
L 312.276137 277.088376 
L 232.192 261.928408 
L 231.782669 261.898541 
L 162.478486 259.579482 
L 178.79048 307.584 
z
M 286.452925 259.579482 
L 334.737569 261.144433 
L 245.563634 259.579482 
L 334.737569 300.445675 
z
" clip-path="url(#p66236f5618)" style="fill: #def0ed"/>
    <path d="M 187.376941 284.467124 
L 240.250725 275.465035 
L 271.739408 275.465035 
L 187.376941 289.828267 
L 170.480443 307.584 
L 187.376941 286.073238 
L 414.72 270.705727 
L 239.505569 276.882372 
L 239.505569 259.579482 
L 239.505569 259.814874 
L 305.112527 261.898541 
L 239.505569 274.208131 
L 239.505569 277.088376 
L 239.505569 277.608159 
L 251.59783 277.088376 
L 324.70948 261.898541 
L 414.72 259.600656 
L 411.637505 259.579482 
L 187.376941 279.578306 
L 165.378737 307.584 
z
" clip-path="url(#p66236f5618)" style="fill: #def0ed"/>
    <path d="M 239.505569 289.917824 
L 239.505569 300.489617 
L 299.546568 275.465035 
L 274.181868 275.465035 
z
" clip-path="url(#p66236f5618)" style="fill: #def0ed"/>
    <path d="M 82.525916 261.898541 
L 57.6 275.078916 
L 64.188787 277.088376 
L 57.6 285.927643 
L 58.282198 286.596518 
L 66.500613 177.4848 
L 79.848362 101.071812 
L 85.787821 248.795859 
L 57.6 212.356366 
L 61.131415 210.879247 
L 57.6 200.884893 
L 89.044283 41.472 
L 100.703373 105.974906 
L 100.703373 59.556228 
L 97.434595 41.472 
L 100.703373 186.781847 
L 100.703373 210.879247 
L 100.703373 212.028411 
L 90.650882 248.795859 
L 90.792097 101.071812 
L 74.599123 177.4848 
L 68.669139 286.596518 
L 100.703373 278.319921 
L 100.703373 277.088376 
L 100.703373 275.157745 
L 86.904246 261.898541 
L 100.703373 260.992819 
L 100.703373 260.705442 
z
" clip-path="url(#p66236f5618)" style="fill: #def0ed"/>
    <path d="M 187.376941 260.442375 
L 308.051507 261.898541 
L 187.376941 269.794203 
L 167.762251 261.898541 
z
M 171.537079 261.898541 
L 187.376941 268.27469 
L 284.827805 261.898541 
L 187.376941 260.722613 
z
" clip-path="url(#p66236f5618)" style="fill: #def0ed"/>
    <path d="M 414.72 284.406845 
L 381.563372 286.596518 
L 278.953488 177.4848 
L 239.505569 149.512219 
L 239.505569 138.250241 
L 294.835527 177.4848 
L 414.72 284.81193 
L 193.556408 177.4848 
L 297.052027 101.071812 
L 252.315249 248.795859 
L 292.145667 210.879247 
L 269.956155 41.472 
L 414.72 106.405888 
L 320.915922 41.472 
L 267.035646 210.879247 
L 271.532615 248.795859 
L 239.505569 190.578874 
L 239.505569 217.692086 
L 256.61676 248.795859 
L 242.490695 210.879247 
L 307.745429 41.472 
L 414.72 115.522883 
L 249.630695 41.472 
L 271.773969 210.879247 
L 235.397518 248.795859 
L 279.255462 101.071812 
L 187.376941 167.353946 
L 181.094959 177.4848 
L 187.376941 209.381027 
L 343.327979 286.596518 
z
" clip-path="url(#p66236f5618)" style="fill: #def0ed"/>
    <path d="M 98.524863 121.359912 
L 89.508011 101.071812 
L 98.524863 163.078014 
L 106.677835 101.071812 
z
M 103.996023 101.071812 
L 98.524863 142.681897 
L 92.473985 101.071812 
L 98.524863 114.686411 
z
" clip-path="url(#p66236f5618)" style="fill: #def0ed"/>
    <path d="M 232.192 113.877128 
L 280.136269 101.071812 
L 232.192 128.282448 
L 140.591569 101.071812 
z
M 184.036528 101.071812 
L 232.192 115.376778 
L 257.396891 101.071812 
L 232.192 107.803724 
z
" clip-path="url(#p66236f5618)" style="fill: #def0ed"/>
    <path d="M 85.76502 224.940102 
L 232.192 212.86701 
L 239.744874 210.879247 
L 232.192 201.138783 
L 85.76502 122.961057 
L 88.219209 210.879247 
z
M 86.901344 210.879247 
L 85.76502 170.171898 
L 179.592433 210.879247 
L 85.76502 217.389619 
z
" clip-path="url(#p66236f5618)" style="fill: #def0ed"/>
    <path d="M 232.192 138.725067 
L 263.69208 172.035012 
L 252.832074 172.035012 
L 232.192 150.209044 
L 199.333076 172.035012 
L 182.043985 172.035012 
z
" clip-path="url(#p66236f5618)" style="fill: #def0ed"/>
    <path d="M 239.505569 129.914686 
L 239.505569 146.984383 
L 269.177043 172.035012 
L 289.395419 172.035012 
z
" clip-path="url(#p66236f5618)" style="fill: #def0ed"/>
   </g>
   <g id="PathCollection_13">
    <path d="M 57.6 275.465035 
L 62.478526 275.465035 
L 57.6 296.036496 
L 100.703373 284.083675 
L 100.703373 275.465035 
z
" clip-path="url(#p66236f5618)" style="fill: #c9eae6"/>
    <path d="M 98.524863 287.991636 
L 93.297628 275.465035 
L 91.871368 275.465035 
L 85.76502 286.450993 
L 122.497695 275.465035 
L 131.07735 275.465035 
L 85.76502 289.016985 
L 92.884636 307.584 
L 93.878822 259.579482 
L 98.524863 260.95303 
L 110.394092 261.898541 
L 98.524863 267.991669 
L 85.76502 275.203856 
L 99.453068 277.088376 
L 85.76502 278.601542 
L 98.524863 281.930917 
L 117.977301 277.088376 
L 118.90949 275.710972 
L 119.007542 277.088376 
L 120.543727 286.596518 
L 119.70415 177.4848 
L 120.890689 101.071812 
L 120.843883 248.795859 
L 121.060694 210.879247 
L 120.624898 41.472 
L 118.90949 116.009881 
L 105.772074 172.035012 
L 108.148454 172.035012 
L 118.90949 126.144067 
L 120.858125 41.472 
L 121.297891 210.879247 
L 121.07248 248.795859 
L 121.246957 101.071812 
L 120.016777 177.4848 
L 120.734659 286.596518 
L 119.403177 277.088376 
L 118.90949 270.153199 
L 113.820473 261.898541 
L 98.524863 260.680082 
L 94.802072 259.579482 
L 93.868579 307.584 
L 98.524863 291.409541 
L 109.033714 275.465035 
L 106.781009 275.465035 
z
M 114.215956 277.088376 
L 98.524863 280.994558 
L 85.76502 277.353145 
L 88.160107 277.088376 
L 85.76502 276.75863 
L 98.524863 269.750618 
z
" clip-path="url(#p66236f5618)" style="fill: #c9eae6"/>
    <path d="M 232.192 301.816075 
L 334.737569 306.890446 
L 247.230218 275.465035 
L 227.941712 275.465035 
L 302.662601 307.584 
L 217.245947 259.579482 
L 334.737569 261.641392 
L 299.523927 261.898541 
L 327.16979 277.088376 
L 334.737569 280.481189 
L 290.560049 286.596518 
L 324.897381 177.4848 
L 257.612701 101.071812 
L 334.737569 202.577263 
L 319.335046 248.795859 
L 334.737569 241.560335 
L 210.594737 210.879247 
L 217.105994 41.472 
L 218.932115 172.035012 
L 232.489396 172.035012 
L 235.529393 41.472 
L 225.203873 210.879247 
L 334.737569 237.949782 
L 311.649132 248.795859 
L 334.737569 179.514018 
L 275.136387 101.071812 
L 334.737569 163.53447 
L 328.369823 177.4848 
L 334.737569 229.568925 
L 314.678204 286.596518 
L 334.737569 283.819775 
L 319.722963 277.088376 
L 265.497512 261.898541 
L 334.737569 261.392912 
L 231.404791 259.579482 
L 334.737569 306.93432 
L 278.786394 259.579482 
L 232.192 261.57686 
L 172.328314 259.579482 
L 193.708433 307.584 
z
M 208.626387 307.584 
L 182.178143 259.579482 
L 232.192 261.248216 
L 271.119863 259.579482 
L 297.52198 307.584 
L 232.192 304.051981 
z
" clip-path="url(#p66236f5618)" style="fill: #c9eae6"/>
    <path d="M 187.376941 279.105981 
L 208.762041 275.465035 
L 240.250725 275.465035 
L 187.376941 284.467124 
L 165.378737 307.584 
L 187.376941 279.578306 
L 411.637505 259.579482 
L 414.72 259.600656 
L 324.70948 261.898541 
L 251.59783 277.088376 
L 239.505569 277.608159 
L 239.505569 280.007167 
L 307.408605 277.088376 
L 344.306433 261.898541 
L 414.72 260.100948 
L 331.275209 261.898541 
L 187.376941 271.313715 
L 163.987423 261.898541 
L 187.376941 260.162137 
L 338.805372 259.579482 
L 187.376941 273.083375 
L 160.27703 307.584 
z
M 167.762251 261.898541 
L 187.376941 269.794203 
L 308.051507 261.898541 
L 187.376941 260.442375 
z
" clip-path="url(#p66236f5618)" style="fill: #c9eae6"/>
    <path d="M 239.505569 279.346031 
L 239.505569 289.917824 
L 274.181868 275.465035 
L 248.817168 275.465035 
z
" clip-path="url(#p66236f5618)" style="fill: #c9eae6"/>
    <path d="M 78.147586 261.898541 
L 57.6 272.763734 
L 71.780001 277.088376 
L 65.442524 286.596518 
L 57.6 187.942652 
L 58.402103 177.4848 
L 68.904628 101.071812 
L 80.92476 248.795859 
L 57.6 218.643034 
L 76.16124 210.879247 
L 57.6 158.348576 
L 80.65397 41.472 
L 100.703373 152.393585 
L 100.703373 105.974906 
L 89.044283 41.472 
L 57.6 200.884893 
L 61.131415 210.879247 
L 57.6 212.356366 
L 85.787821 248.795859 
L 79.848362 101.071812 
L 66.500613 177.4848 
L 58.282198 286.596518 
L 57.6 285.927643 
L 64.188787 277.088376 
L 57.6 275.078916 
L 82.525916 261.898541 
L 100.703373 260.705442 
L 100.703373 260.418065 
z
" clip-path="url(#p66236f5618)" style="fill: #c9eae6"/>
    <path d="M 414.72 281.902897 
L 343.647901 286.596518 
L 263.071449 177.4848 
L 239.505569 160.774198 
L 239.505569 149.512219 
L 278.953488 177.4848 
L 381.563372 286.596518 
L 414.72 284.406845 
L 343.327979 286.596518 
L 187.376941 209.381027 
L 181.094959 177.4848 
L 187.376941 167.353946 
L 279.255462 101.071812 
L 235.397518 248.795859 
L 271.773969 210.879247 
L 249.630695 41.472 
L 414.72 115.522883 
L 307.745429 41.472 
L 242.490695 210.879247 
L 256.61676 248.795859 
L 239.505569 217.692086 
L 239.505569 244.805297 
L 241.700906 248.795859 
L 239.505569 243.354337 
L 239.505569 210.879247 
L 239.505569 181.469278 
L 294.574937 41.472 
L 239.505569 112.844989 
L 239.505569 129.914686 
L 289.395419 172.035012 
L 309.613796 172.035012 
L 414.72 124.639877 
L 208.443448 172.035012 
L 187.376941 172.035012 
L 183.291013 172.035012 
L 187.376941 145.310178 
L 229.305234 41.472 
L 251.402271 210.879247 
L 218.479787 248.795859 
L 261.458897 101.071812 
L 187.376941 154.515317 
L 173.133927 177.4848 
L 187.376941 249.802482 
L 261.689335 286.596518 
z
" clip-path="url(#p66236f5618)" style="fill: #c9eae6"/>
    <path d="M 98.524863 114.686411 
L 92.473985 101.071812 
L 98.524863 142.681897 
L 103.996023 101.071812 
z
M 101.314211 101.071812 
L 98.524863 122.285779 
L 95.439958 101.071812 
L 98.524863 108.012909 
z
" clip-path="url(#p66236f5618)" style="fill: #c9eae6"/>
    <path d="M 232.192 107.803724 
L 257.396891 101.071812 
L 232.192 115.376778 
L 184.036528 101.071812 
z
M 227.481487 101.071812 
L 232.192 102.471107 
L 234.657513 101.071812 
L 232.192 101.73032 
z
" clip-path="url(#p66236f5618)" style="fill: #c9eae6"/>
    <path d="M 85.76502 217.389619 
L 179.592433 210.879247 
L 85.76502 170.171898 
L 86.901344 210.879247 
z
" clip-path="url(#p66236f5618)" style="fill: #c9eae6"/>
    <path d="M 98.524863 78.392027 
L 92.475045 41.472 
L 98.524863 99.738351 
L 103.630598 41.472 
z
M 101.553276 41.472 
L 98.524863 76.032078 
L 94.936477 41.472 
L 98.524863 63.370728 
z
" clip-path="url(#p66236f5618)" style="fill: #c9eae6"/>
    <path d="M 232.192 150.209044 
L 252.832074 172.035012 
L 241.972068 172.035012 
L 232.192 161.693022 
L 216.622167 172.035012 
L 199.333076 172.035012 
z
" clip-path="url(#p66236f5618)" style="fill: #c9eae6"/>
   </g>
   <g id="PathCollection_14">
    <path d="M 57.6 296.036496 
L 62.478526 275.465035 
L 72.270589 275.465035 
L 77.843654 307.584 
L 57.6 299.781356 
L 70.683001 307.584 
L 100.703373 292.942068 
L 100.703373 284.083675 
z
" clip-path="url(#p66236f5618)" style="fill: #a8ddd5"/>
    <path d="M 98.524863 291.409541 
L 93.868579 307.584 
L 94.802072 259.579482 
L 98.524863 260.680082 
L 113.820473 261.898541 
L 118.90949 270.153199 
L 119.403177 277.088376 
L 120.734659 286.596518 
L 120.016777 177.4848 
L 121.246957 101.071812 
L 121.07248 248.795859 
L 121.297891 210.879247 
L 120.858125 41.472 
L 118.90949 126.144067 
L 108.148454 172.035012 
L 110.524835 172.035012 
L 118.90949 136.278253 
L 121.091352 41.472 
L 121.535087 210.879247 
L 121.301077 248.795859 
L 121.603226 101.071812 
L 120.329405 177.4848 
L 120.925591 286.596518 
L 119.798812 277.088376 
L 118.90949 264.595427 
L 117.246853 261.898541 
L 98.524863 260.407133 
L 95.725323 259.579482 
L 94.852521 307.584 
L 98.524863 294.827446 
L 111.286418 275.465035 
L 109.033714 275.465035 
z
" clip-path="url(#p66236f5618)" style="fill: #a8ddd5"/>
    <path d="M 85.76502 283.885002 
L 113.91804 275.465035 
L 122.497695 275.465035 
L 85.76502 286.450993 
L 91.871368 275.465035 
L 90.445107 275.465035 
z
" clip-path="url(#p66236f5618)" style="fill: #a8ddd5"/>
    <path d="M 232.192 304.051981 
L 297.52198 307.584 
L 271.119863 259.579482 
L 232.192 261.248216 
L 182.178143 259.579482 
L 208.626387 307.584 
z
M 223.54434 307.584 
L 192.027972 259.579482 
L 232.192 260.919573 
L 263.453332 259.579482 
L 256.165552 307.584 
L 232.192 306.287887 
z
" clip-path="url(#p66236f5618)" style="fill: #a8ddd5"/>
    <path d="M 267.018771 307.584 
L 203.087103 259.579482 
L 334.737569 261.889871 
L 333.550343 261.898541 
L 334.616616 277.088376 
L 334.737569 277.142602 
L 266.441893 286.596518 
L 283.962306 177.4848 
L 240.089015 101.071812 
L 334.737569 225.640508 
L 327.02096 248.795859 
L 334.737569 245.170887 
L 195.9856 210.879247 
L 198.682594 41.472 
L 205.374834 172.035012 
L 218.932115 172.035012 
L 217.105994 41.472 
L 210.594737 210.879247 
L 334.737569 241.560335 
L 319.335046 248.795859 
L 334.737569 202.577263 
L 257.612701 101.071812 
L 324.897381 177.4848 
L 290.560049 286.596518 
L 334.737569 280.481189 
L 327.16979 277.088376 
L 299.523927 261.898541 
L 334.737569 261.641392 
L 217.245947 259.579482 
L 302.662601 307.584 
L 227.941712 275.465035 
L 208.653205 275.465035 
z
" clip-path="url(#p66236f5618)" style="fill: #a8ddd5"/>
    <path d="M 187.376941 275.465035 
L 208.762041 275.465035 
L 187.376941 279.105981 
L 160.27703 307.584 
L 187.376941 273.083375 
L 338.805372 259.579482 
L 187.376941 260.162137 
L 163.987423 261.898541 
L 187.376941 271.313715 
L 331.275209 261.898541 
L 414.72 260.100948 
L 344.306433 261.898541 
L 307.408605 277.088376 
L 239.505569 280.007167 
L 239.505569 282.406175 
L 305.73243 286.596518 
L 247.18941 177.4848 
L 239.505569 172.036176 
L 239.505569 160.774198 
L 263.071449 177.4848 
L 343.647901 286.596518 
L 414.72 281.902897 
L 261.689335 286.596518 
L 187.376941 249.802482 
L 173.133927 177.4848 
L 187.376941 154.515317 
L 261.458897 101.071812 
L 218.479787 248.795859 
L 251.402271 210.879247 
L 229.305234 41.472 
L 187.376941 145.310178 
L 183.291013 172.035012 
L 175.594997 172.035012 
L 187.376941 94.972835 
L 208.979773 41.472 
L 231.030573 210.879247 
L 201.562057 248.795859 
L 243.662332 101.071812 
L 187.376941 141.676687 
L 165.172895 177.4848 
L 186.54333 286.596518 
L 187.376941 286.30128 
L 414.72 279.398949 
L 363.219379 277.088376 
L 363.903386 261.898541 
L 414.72 260.60124 
L 354.49891 261.898541 
L 187.376941 272.833227 
L 160.212595 261.898541 
L 187.376941 259.881899 
L 265.97324 259.579482 
L 187.376941 266.588443 
L 155.175324 307.584 
L 183.357504 275.465035 
z
" clip-path="url(#p66236f5618)" style="fill: #a8ddd5"/>
    <path d="M 239.505569 275.465035 
L 239.505569 279.346031 
L 248.817168 275.465035 
z
" clip-path="url(#p66236f5618)" style="fill: #a8ddd5"/>
    <path d="M 73.769256 261.898541 
L 57.6 270.448552 
L 79.371214 277.088376 
L 73.836341 286.596518 
L 66.792561 177.4848 
L 57.6 103.769947 
L 57.960893 101.071812 
L 76.061699 248.795859 
L 57.6 224.929702 
L 91.191064 210.879247 
L 57.6 115.81226 
L 72.263658 41.472 
L 92.580329 172.035012 
L 100.703373 172.035012 
L 100.703373 152.393585 
L 80.65397 41.472 
L 57.6 158.348576 
L 76.16124 210.879247 
L 57.6 218.643034 
L 80.92476 248.795859 
L 68.904628 101.071812 
L 58.402103 177.4848 
L 57.6 187.942652 
L 65.442524 286.596518 
L 71.780001 277.088376 
L 57.6 272.763734 
L 78.147586 261.898541 
L 100.703373 260.418065 
L 100.703373 260.130688 
z
" clip-path="url(#p66236f5618)" style="fill: #a8ddd5"/>
    <path d="M 98.524863 269.750618 
L 85.76502 276.75863 
L 88.160107 277.088376 
L 85.76502 277.353145 
L 98.524863 280.994558 
L 114.215956 277.088376 
z
M 110.454611 277.088376 
L 98.524863 280.058199 
L 88.304087 277.088376 
L 98.524863 271.509568 
z
" clip-path="url(#p66236f5618)" style="fill: #a8ddd5"/>
    <path d="M 98.524863 108.012909 
L 95.439958 101.071812 
L 98.524863 122.285779 
L 101.314211 101.071812 
z
M 98.632399 101.071812 
L 98.524863 101.889662 
L 98.405932 101.071812 
L 98.524863 101.339408 
z
" clip-path="url(#p66236f5618)" style="fill: #a8ddd5"/>
    <path d="M 232.192 101.73032 
L 234.657513 101.071812 
L 232.192 102.471107 
L 227.481487 101.071812 
z
" clip-path="url(#p66236f5618)" style="fill: #a8ddd5"/>
    <path d="M 239.505569 244.805297 
L 239.505569 248.795859 
L 239.505569 243.354337 
L 241.700906 248.795859 
z
" clip-path="url(#p66236f5618)" style="fill: #a8ddd5"/>
    <path d="M 98.524863 63.370728 
L 94.936477 41.472 
L 98.524863 76.032078 
L 101.553276 41.472 
z
M 99.475955 41.472 
L 98.524863 52.325805 
L 97.397908 41.472 
L 98.524863 48.34943 
z
" clip-path="url(#p66236f5618)" style="fill: #a8ddd5"/>
    <path d="M 239.505569 181.469278 
L 239.505569 147.987269 
L 281.404445 41.472 
L 239.505569 95.775293 
L 239.505569 112.844989 
L 294.574937 41.472 
z
" clip-path="url(#p66236f5618)" style="fill: #a8ddd5"/>
    <path d="M 232.192 161.693022 
L 241.972068 172.035012 
L 232.192 172.035012 
L 216.622167 172.035012 
z
" clip-path="url(#p66236f5618)" style="fill: #a8ddd5"/>
    <path d="M 414.72 124.639877 
L 309.613796 172.035012 
L 329.832173 172.035012 
L 414.72 133.756872 
L 248.123095 172.035012 
L 208.443448 172.035012 
z
" clip-path="url(#p66236f5618)" style="fill: #a8ddd5"/>
   </g>
   <g id="PathCollection_15">
    <path d="M 70.683001 307.584 
L 57.6 299.781356 
L 77.843654 307.584 
L 72.270589 275.465035 
L 82.062652 275.465035 
L 105.946748 307.584 
L 57.6 288.949397 
L 88.845374 307.584 
L 100.703373 301.80046 
L 100.703373 292.942068 
z
" clip-path="url(#p66236f5618)" style="fill: #87d0c5"/>
    <path d="M 98.524863 294.827446 
L 94.852521 307.584 
L 95.725323 259.579482 
L 98.524863 260.407133 
L 117.246853 261.898541 
L 118.90949 264.595427 
L 119.798812 277.088376 
L 120.925591 286.596518 
L 120.329405 177.4848 
L 121.603226 101.071812 
L 121.301077 248.795859 
L 121.535087 210.879247 
L 121.091352 41.472 
L 118.90949 136.278253 
L 110.524835 172.035012 
L 112.901215 172.035012 
L 118.90949 146.412439 
L 121.32458 41.472 
L 121.772284 210.879247 
L 121.529675 248.795859 
L 121.959495 101.071812 
L 120.642033 177.4848 
L 121.116522 286.596518 
L 120.194448 277.088376 
L 121.655411 261.898541 
L 118.90949 261.502808 
L 98.524863 260.134185 
L 96.648573 259.579482 
L 95.836464 307.584 
L 98.524863 298.245351 
L 113.539122 275.465035 
L 111.286418 275.465035 
z
" clip-path="url(#p66236f5618)" style="fill: #87d0c5"/>
    <path d="M 85.76502 281.31901 
L 105.338385 275.465035 
L 113.91804 275.465035 
L 85.76502 283.885002 
L 90.445107 275.465035 
L 89.018847 275.465035 
z
" clip-path="url(#p66236f5618)" style="fill: #87d0c5"/>
    <path d="M 232.192 306.287887 
L 256.165552 307.584 
L 263.453332 259.579482 
L 232.192 260.919573 
L 192.027972 259.579482 
L 223.54434 307.584 
z
M 201.8778 259.579482 
L 232.192 260.590929 
L 255.786801 259.579482 
L 232.192 301.815719 
z
" clip-path="url(#p66236f5618)" style="fill: #87d0c5"/>
    <path d="M 231.374942 307.584 
L 188.928259 259.579482 
L 304.118745 261.898541 
L 288.405028 277.088376 
L 242.323738 286.596518 
L 243.027232 177.4848 
L 222.565328 101.071812 
L 334.737569 248.703752 
L 334.706874 248.795859 
L 334.737569 248.78144 
L 181.376464 210.879247 
L 180.259195 41.472 
L 191.817553 172.035012 
L 205.374834 172.035012 
L 198.682594 41.472 
L 195.9856 210.879247 
L 334.737569 245.170887 
L 327.02096 248.795859 
L 334.737569 225.640508 
L 240.089015 101.071812 
L 283.962306 177.4848 
L 266.441893 286.596518 
L 334.737569 277.142602 
L 334.616616 277.088376 
L 333.550343 261.898541 
L 334.737569 261.889871 
L 203.087103 259.579482 
L 267.018771 307.584 
L 208.653205 275.465035 
L 189.364699 275.465035 
z
" clip-path="url(#p66236f5618)" style="fill: #87d0c5"/>
    <path d="M 155.175324 307.584 
L 187.376941 266.588443 
L 265.97324 259.579482 
L 187.376941 259.881899 
L 160.212595 261.898541 
L 187.376941 272.833227 
L 354.49891 261.898541 
L 414.72 260.60124 
L 363.903386 261.898541 
L 363.219379 277.088376 
L 414.72 279.398949 
L 187.376941 286.30128 
L 186.54333 286.596518 
L 165.172895 177.4848 
L 187.376941 141.676687 
L 243.662332 101.071812 
L 201.562057 248.795859 
L 231.030573 210.879247 
L 208.979773 41.472 
L 187.376941 94.972835 
L 175.594997 172.035012 
L 167.89898 172.035012 
L 187.376941 44.635493 
L 188.654312 41.472 
L 210.658875 210.879247 
L 187.376941 244.100578 
L 185.901659 248.795859 
L 187.376941 238.529709 
L 225.865768 101.071812 
L 187.376941 128.838057 
L 157.211863 177.4848 
L 177.254147 286.596518 
L 187.376941 283.011356 
L 405.368937 277.088376 
L 187.376941 274.352739 
L 156.437768 261.898541 
L 187.376941 259.601661 
L 193.141107 259.579482 
L 187.376941 260.093512 
L 150.073617 307.584 
L 170.830584 275.465035 
L 183.357504 275.465035 
z
M 377.722612 261.898541 
L 414.72 276.386066 
L 383.50034 261.898541 
L 414.72 261.101532 
z
" clip-path="url(#p66236f5618)" style="fill: #87d0c5"/>
    <path d="M 69.390926 261.898541 
L 57.6 268.13337 
L 86.962428 277.088376 
L 82.230157 286.596518 
L 76.995671 177.4848 
L 112.175994 101.071812 
L 57.6 139.030836 
L 71.198638 248.795859 
L 57.6 231.21637 
L 106.220889 210.879247 
L 57.6 73.275943 
L 63.873346 41.472 
L 78.498939 172.035012 
L 92.580329 172.035012 
L 72.263658 41.472 
L 57.6 115.81226 
L 91.191064 210.879247 
L 57.6 224.929702 
L 76.061699 248.795859 
L 57.960893 101.071812 
L 57.6 103.769947 
L 66.792561 177.4848 
L 73.836341 286.596518 
L 79.371214 277.088376 
L 57.6 270.448552 
L 73.769256 261.898541 
L 100.703373 260.130688 
L 100.703373 259.843311 
z
" clip-path="url(#p66236f5618)" style="fill: #87d0c5"/>
    <path d="M 98.524863 271.509568 
L 88.304087 277.088376 
L 98.524863 280.058199 
L 110.454611 277.088376 
z
M 106.693266 277.088376 
L 98.524863 279.12184 
L 91.526608 277.088376 
L 98.524863 273.268517 
z
" clip-path="url(#p66236f5618)" style="fill: #87d0c5"/>
    <path d="M 239.505569 282.406175 
L 239.505569 284.805184 
L 267.816959 286.596518 
L 239.505569 222.083048 
L 239.505569 177.4848 
L 239.505569 172.036176 
L 247.18941 177.4848 
L 305.73243 286.596518 
z
" clip-path="url(#p66236f5618)" style="fill: #87d0c5"/>
    <path d="M 98.524863 101.339408 
L 98.405932 101.071812 
L 98.524863 101.889662 
L 98.632399 101.071812 
z
" clip-path="url(#p66236f5618)" style="fill: #87d0c5"/>
    <path d="M 98.524863 48.34943 
L 97.397908 41.472 
L 98.524863 52.325805 
L 99.475955 41.472 
z
" clip-path="url(#p66236f5618)" style="fill: #87d0c5"/>
    <path d="M 239.505569 147.987269 
L 239.505569 114.50526 
L 268.233952 41.472 
L 239.505569 78.705596 
L 239.505569 95.775293 
L 281.404445 41.472 
z
" clip-path="url(#p66236f5618)" style="fill: #87d0c5"/>
    <path d="M 414.72 133.756872 
L 329.832173 172.035012 
L 350.05055 172.035012 
L 414.72 142.873867 
L 287.802743 172.035012 
L 248.123095 172.035012 
z
" clip-path="url(#p66236f5618)" style="fill: #87d0c5"/>
   </g>
   <g id="PathCollection_16">
    <path d="M 88.845374 307.584 
L 57.6 288.949397 
L 105.946748 307.584 
L 82.062652 275.465035 
L 91.854715 275.465035 
L 122.021647 303.666088 
L 118.90949 305.944277 
L 115.791827 275.465035 
L 113.539122 275.465035 
L 98.524863 298.245351 
L 95.836464 307.584 
L 96.648573 259.579482 
L 98.524863 260.134185 
L 118.90949 261.502808 
L 121.655411 261.898541 
L 120.194448 277.088376 
L 121.116522 286.596518 
L 120.642033 177.4848 
L 121.959495 101.071812 
L 121.529675 248.795859 
L 121.772284 210.879247 
L 121.32458 41.472 
L 118.90949 146.412439 
L 112.901215 172.035012 
L 115.277595 172.035012 
L 118.90949 156.546625 
L 121.557807 41.472 
L 122.00948 210.879247 
L 121.758272 248.795859 
L 122.021647 162.73645 
L 57.6 178.284326 
L 66.335577 248.795859 
L 57.6 237.503039 
L 121.250714 210.879247 
L 64.852807 41.472 
L 57.6 86.202583 
L 64.41755 172.035012 
L 78.498939 172.035012 
L 63.873346 41.472 
L 57.6 73.275943 
L 106.220889 210.879247 
L 57.6 231.21637 
L 71.198638 248.795859 
L 57.6 139.030836 
L 112.175994 101.071812 
L 76.995671 177.4848 
L 82.230157 286.596518 
L 86.962428 277.088376 
L 57.6 268.13337 
L 69.390926 261.898541 
L 100.703373 259.843311 
L 100.703373 259.579482 
L 100.703373 307.584 
L 100.703373 301.80046 
z
M 118.069447 307.584 
L 118.90949 305.316487 
L 122.021647 270.834275 
L 57.6 278.117437 
L 98.733857 259.579482 
L 65.012596 261.898541 
L 57.6 265.818188 
L 99.159432 261.898541 
L 122.021647 259.8656 
L 118.90949 260.734028 
L 98.524863 259.861237 
L 97.571823 259.579482 
L 96.820406 307.584 
L 98.524863 301.663257 
z
M 94.553642 277.088376 
L 90.623973 286.596518 
L 87.198781 177.4848 
L 122.021647 115.954976 
L 120.95466 177.4848 
L 121.307454 286.596518 
L 120.590083 277.088376 
L 122.021647 265.007945 
z
" clip-path="url(#p66236f5618)" style="fill: #64b9ae"/>
    <path d="M 85.76502 278.753019 
L 96.75873 275.465035 
L 105.338385 275.465035 
L 85.76502 281.31901 
L 89.018847 275.465035 
L 87.592587 275.465035 
z
" clip-path="url(#p66236f5618)" style="fill: #64b9ae"/>
    <path d="M 195.731112 307.584 
L 174.769416 259.579482 
L 272.392967 261.898541 
L 241.307521 277.088376 
L 218.205582 286.596518 
L 202.092157 177.4848 
L 205.041642 101.071812 
L 298.209993 248.795859 
L 166.767327 210.879247 
L 161.835795 41.472 
L 178.260272 172.035012 
L 191.817553 172.035012 
L 180.259195 41.472 
L 181.376464 210.879247 
L 334.737569 248.78144 
L 334.706874 248.795859 
L 334.737569 248.703752 
L 222.565328 101.071812 
L 243.027232 177.4848 
L 242.323738 286.596518 
L 288.405028 277.088376 
L 304.118745 261.898541 
L 188.928259 259.579482 
L 231.374942 307.584 
L 189.364699 275.465035 
L 170.076192 275.465035 
z
" clip-path="url(#p66236f5618)" style="fill: #64b9ae"/>
    <path d="M 150.073617 307.584 
L 187.376941 260.093512 
L 193.141107 259.579482 
L 187.376941 259.601661 
L 156.437768 261.898541 
L 187.376941 274.352739 
L 405.368937 277.088376 
L 187.376941 283.011356 
L 177.254147 286.596518 
L 157.211863 177.4848 
L 187.376941 128.838057 
L 225.865768 101.071812 
L 187.376941 238.529709 
L 185.901659 248.795859 
L 187.376941 244.100578 
L 210.658875 210.879247 
L 188.654312 41.472 
L 187.376941 44.635493 
L 167.89898 172.035012 
L 160.202964 172.035012 
L 166.757969 41.472 
L 187.376941 188.471159 
L 190.287177 210.879247 
L 187.376941 215.031905 
L 176.76813 248.795859 
L 187.376941 174.971565 
L 208.069203 101.071812 
L 187.376941 115.999428 
L 149.250832 177.4848 
L 167.964964 286.596518 
L 187.376941 279.721431 
L 284.285073 277.088376 
L 187.376941 275.872252 
L 152.66294 261.898541 
L 174.448119 259.579482 
L 144.971911 307.584 
L 158.303665 275.465035 
L 170.830584 275.465035 
z
" clip-path="url(#p66236f5618)" style="fill: #64b9ae"/>
    <path d="M 232.192 301.815719 
L 255.786801 259.579482 
L 232.192 260.590929 
L 201.8778 259.579482 
z
M 211.727629 259.579482 
L 232.192 260.262285 
L 248.12027 259.579482 
L 232.192 288.092128 
z
" clip-path="url(#p66236f5618)" style="fill: #64b9ae"/>
    <path d="M 414.72 261.101532 
L 383.50034 261.898541 
L 414.72 276.386066 
L 377.722612 261.898541 
z
M 400.946314 261.898541 
L 414.72 267.292074 
L 403.097293 261.898541 
L 414.72 261.601824 
z
" clip-path="url(#p66236f5618)" style="fill: #64b9ae"/>
    <path d="M 98.524863 273.268517 
L 91.526608 277.088376 
L 98.524863 279.12184 
L 106.693266 277.088376 
z
M 102.931921 277.088376 
L 98.524863 278.185481 
L 94.749129 277.088376 
L 98.524863 275.027467 
z
" clip-path="url(#p66236f5618)" style="fill: #64b9ae"/>
    <path d="M 239.505569 284.805184 
L 239.505569 286.596518 
L 239.505569 222.083048 
L 267.816959 286.596518 
z
" clip-path="url(#p66236f5618)" style="fill: #64b9ae"/>
    <path d="M 239.505569 114.50526 
L 239.505569 81.023251 
L 255.06346 41.472 
L 239.505569 61.635899 
L 239.505569 78.705596 
L 268.233952 41.472 
z
" clip-path="url(#p66236f5618)" style="fill: #64b9ae"/>
    <path d="M 414.72 142.873867 
L 350.05055 172.035012 
L 370.268927 172.035012 
L 414.72 151.990861 
L 327.48239 172.035012 
L 287.802743 172.035012 
z
" clip-path="url(#p66236f5618)" style="fill: #64b9ae"/>
   </g>
   <g id="PathCollection_17">
    <path d="M 122.021647 294.512141 
L 118.90949 283.921142 
L 118.044531 275.465035 
L 115.791827 275.465035 
L 118.90949 305.944277 
L 122.021647 303.666088 
L 91.854715 275.465035 
L 101.646778 275.465035 
z
" clip-path="url(#p66236f5618)" style="fill: #3e9d95"/>
    <path d="M 98.524863 301.663257 
L 96.820406 307.584 
L 97.571823 259.579482 
L 98.524863 259.861237 
L 118.90949 260.734028 
L 122.021647 259.8656 
L 99.159432 261.898541 
L 57.6 265.818188 
L 65.012596 261.898541 
L 98.733857 259.579482 
L 57.6 278.117437 
L 122.021647 270.834275 
L 118.90949 305.316487 
L 118.069447 307.584 
z
M 106.78682 307.584 
L 118.90949 274.861491 
L 120.048788 259.579482 
L 118.90949 259.965248 
L 98.524863 259.588289 
L 98.495073 259.579482 
L 97.804349 307.584 
L 98.524863 305.081162 
z
M 74.69883 259.579482 
L 60.634266 261.898541 
L 57.6 263.503007 
L 74.611905 261.898541 
L 86.60043 259.579482 
L 57.6 267.285478 
z
" clip-path="url(#p66236f5618)" style="fill: #3e9d95"/>
    <path d="M 85.76502 276.187028 
L 88.179075 275.465035 
L 96.75873 275.465035 
L 85.76502 278.753019 
L 87.592587 275.465035 
L 86.166326 275.465035 
z
" clip-path="url(#p66236f5618)" style="fill: #3e9d95"/>
    <path d="M 160.087283 307.584 
L 160.610572 259.579482 
L 240.66719 261.898541 
L 194.210013 277.088376 
L 194.087426 286.596518 
L 161.157082 177.4848 
L 187.517956 101.071812 
L 261.535955 248.795859 
L 152.158191 210.879247 
L 143.412396 41.472 
L 164.702991 172.035012 
L 178.260272 172.035012 
L 161.835795 41.472 
L 166.767327 210.879247 
L 298.209993 248.795859 
L 205.041642 101.071812 
L 202.092157 177.4848 
L 218.205582 286.596518 
L 241.307521 277.088376 
L 272.392967 261.898541 
L 174.769416 259.579482 
L 195.731112 307.584 
L 170.076192 275.465035 
L 150.787686 275.465035 
z
" clip-path="url(#p66236f5618)" style="fill: #3e9d95"/>
    <path d="M 144.971911 307.584 
L 174.448119 259.579482 
L 152.66294 261.898541 
L 187.376941 275.872252 
L 284.285073 277.088376 
L 187.376941 279.721431 
L 167.964964 286.596518 
L 149.250832 177.4848 
L 187.376941 115.999428 
L 208.069203 101.071812 
L 187.376941 174.971565 
L 176.76813 248.795859 
L 187.376941 215.031905 
L 190.287177 210.879247 
L 187.376941 188.471159 
L 166.757969 41.472 
L 160.202964 172.035012 
L 152.506948 172.035012 
L 144.756282 41.472 
L 164.771853 210.879247 
L 167.634602 248.795859 
L 187.376941 111.413422 
L 190.272638 101.071812 
L 187.376941 103.160798 
L 141.2898 177.4848 
L 158.675782 286.596518 
L 180.248146 277.088376 
L 148.888112 261.898541 
L 160.408126 259.579482 
L 139.870204 307.584 
L 145.776745 275.465035 
L 158.303665 275.465035 
z
" clip-path="url(#p66236f5618)" style="fill: #3e9d95"/>
    <path d="M 232.192 288.092128 
L 248.12027 259.579482 
L 232.192 260.262285 
L 211.727629 259.579482 
z
M 221.577457 259.579482 
L 232.192 259.933641 
L 240.45374 259.579482 
L 232.192 274.368536 
z
" clip-path="url(#p66236f5618)" style="fill: #3e9d95"/>
    <path d="M 414.72 261.601824 
L 403.097293 261.898541 
L 414.72 267.292074 
L 400.946314 261.898541 
z
" clip-path="url(#p66236f5618)" style="fill: #3e9d95"/>
    <path d="M 122.021647 265.007945 
L 120.590083 277.088376 
L 121.307454 286.596518 
L 120.95466 177.4848 
L 122.021647 115.954976 
L 87.198781 177.4848 
L 90.623973 286.596518 
L 94.553642 277.088376 
z
M 102.144855 277.088376 
L 99.01779 286.596518 
L 97.401891 177.4848 
L 122.021647 133.983232 
L 121.267288 177.4848 
L 121.498385 286.596518 
L 120.985718 277.088376 
L 122.021647 268.346561 
z
" clip-path="url(#p66236f5618)" style="fill: #3e9d95"/>
    <path d="M 98.524863 275.027467 
L 94.749129 277.088376 
L 98.524863 278.185481 
L 102.931921 277.088376 
z
M 99.170576 277.088376 
L 98.524863 277.249122 
L 97.97165 277.088376 
L 98.524863 276.786416 
z
" clip-path="url(#p66236f5618)" style="fill: #3e9d95"/>
    <path d="M 57.6 178.284326 
L 122.021647 162.73645 
L 121.758272 248.795859 
L 122.00948 210.879247 
L 121.557807 41.472 
L 118.90949 156.546625 
L 115.277595 172.035012 
L 117.653976 172.035012 
L 118.90949 166.680811 
L 121.447491 172.035012 
L 122.021647 172.035012 
L 57.6 172.035012 
L 64.41755 172.035012 
L 57.6 86.202583 
L 64.852807 41.472 
L 121.250714 210.879247 
L 57.6 237.503039 
L 66.335577 248.795859 
z
M 61.472516 248.795859 
L 57.6 243.789707 
L 122.021647 243.5558 
L 121.986869 248.795859 
L 122.021647 237.431984 
L 57.6 217.537817 
z
M 93.598328 41.472 
L 122.021647 157.955028 
L 121.791034 41.472 
L 122.021647 127.928052 
z
" clip-path="url(#p66236f5618)" style="fill: #3e9d95"/>
    <path d="M 239.505569 81.023251 
L 239.505569 47.541242 
L 241.892967 41.472 
L 239.505569 44.566203 
L 239.505569 61.635899 
L 255.06346 41.472 
z
" clip-path="url(#p66236f5618)" style="fill: #3e9d95"/>
    <path d="M 414.72 151.990861 
L 370.268927 172.035012 
L 390.487304 172.035012 
L 414.72 161.107856 
L 367.162037 172.035012 
L 327.48239 172.035012 
z
" clip-path="url(#p66236f5618)" style="fill: #3e9d95"/>
   </g>
   <g id="PathCollection_18">
    <path d="M 122.021647 285.358195 
L 120.039388 275.465035 
L 118.90949 275.465035 
L 118.044531 275.465035 
L 118.90949 283.921142 
L 122.021647 294.512141 
L 101.646778 275.465035 
L 111.438841 275.465035 
z
" clip-path="url(#p66236f5618)" style="fill: #23867e"/>
    <path d="M 98.524863 305.081162 
L 97.804349 307.584 
L 98.495073 259.579482 
L 98.524863 259.588289 
L 118.90949 259.965248 
L 120.048788 259.579482 
L 118.90949 274.861491 
L 106.78682 307.584 
z
" clip-path="url(#p66236f5618)" style="fill: #23867e"/>
    <path d="M 85.76502 275.465035 
L 88.179075 275.465035 
L 85.76502 276.187028 
L 86.166326 275.465035 
z
" clip-path="url(#p66236f5618)" style="fill: #23867e"/>
    <path d="M 136.493176 275.465035 
L 145.776745 275.465035 
L 139.870204 307.584 
L 160.408126 259.579482 
L 148.888112 261.898541 
L 180.248146 277.088376 
L 158.675782 286.596518 
L 141.2898 177.4848 
L 187.376941 103.160798 
L 190.272638 101.071812 
L 187.376941 111.413422 
L 167.634602 248.795859 
L 164.771853 210.879247 
L 144.756282 41.472 
L 152.506948 172.035012 
L 144.810931 172.035012 
L 136.493176 89.282756 
L 151.14571 172.035012 
L 164.702991 172.035012 
L 143.412396 41.472 
L 152.158191 210.879247 
L 261.535955 248.795859 
L 187.517956 101.071812 
L 161.157082 177.4848 
L 194.087426 286.596518 
L 194.210013 277.088376 
L 240.66719 261.898541 
L 160.610572 259.579482 
L 160.087283 307.584 
L 150.787686 275.465035 
z
M 146.451728 259.579482 
L 208.941412 261.898541 
L 147.112505 277.088376 
L 169.969271 286.596518 
L 136.493176 201.775324 
L 149.386599 286.596518 
L 144.543659 277.088376 
L 145.113284 261.898541 
L 146.368134 259.579482 
L 136.493176 292.00084 
z
M 169.994269 101.071812 
L 224.861916 248.795859 
L 137.549054 210.879247 
L 136.493176 193.30527 
L 138.39926 210.879247 
L 158.501073 248.795859 
L 171.87907 101.071812 
L 136.493176 164.331951 
z
" clip-path="url(#p66236f5618)" style="fill: #23867e"/>
    <path d="M 57.6 267.285478 
L 86.60043 259.579482 
L 74.611905 261.898541 
L 57.6 263.503007 
L 60.634266 261.898541 
L 74.69883 259.579482 
z
" clip-path="url(#p66236f5618)" style="fill: #23867e"/>
    <path d="M 232.192 274.368536 
L 240.45374 259.579482 
L 232.192 259.933641 
L 221.577457 259.579482 
z
M 231.427286 259.579482 
L 232.192 259.604997 
L 232.787209 259.579482 
L 232.192 260.644945 
z
" clip-path="url(#p66236f5618)" style="fill: #23867e"/>
    <path d="M 122.021647 268.346561 
L 120.985718 277.088376 
L 121.498385 286.596518 
L 121.267288 177.4848 
L 122.021647 133.983232 
L 97.401891 177.4848 
L 99.01779 286.596518 
L 102.144855 277.088376 
z
M 109.736069 277.088376 
L 107.411606 286.596518 
L 107.605 177.4848 
L 122.021647 152.011488 
L 121.579915 177.4848 
L 121.689317 286.596518 
L 121.381353 277.088376 
L 122.021647 271.685178 
z
" clip-path="url(#p66236f5618)" style="fill: #23867e"/>
    <path d="M 98.524863 276.786416 
L 97.97165 277.088376 
L 98.524863 277.249122 
L 99.170576 277.088376 
z
" clip-path="url(#p66236f5618)" style="fill: #23867e"/>
    <path d="M 57.6 217.537817 
L 122.021647 237.431984 
L 121.986869 248.795859 
L 122.021647 243.5558 
L 57.6 243.789707 
L 61.472516 248.795859 
z
" clip-path="url(#p66236f5618)" style="fill: #23867e"/>
    <path d="M 122.021647 127.928052 
L 121.791034 41.472 
L 122.021647 157.955028 
L 93.598328 41.472 
z
" clip-path="url(#p66236f5618)" style="fill: #23867e"/>
    <path d="M 239.505569 47.541242 
L 239.505569 41.472 
L 239.505569 44.566203 
L 241.892967 41.472 
z
" clip-path="url(#p66236f5618)" style="fill: #23867e"/>
    <path d="M 118.90949 166.680811 
L 117.653976 172.035012 
L 118.90949 172.035012 
L 121.447491 172.035012 
z
" clip-path="url(#p66236f5618)" style="fill: #23867e"/>
    <path d="M 414.72 161.107856 
L 390.487304 172.035012 
L 410.705681 172.035012 
L 414.72 170.224851 
L 406.841685 172.035012 
L 367.162037 172.035012 
z
" clip-path="url(#p66236f5618)" style="fill: #23867e"/>
   </g>
   <g id="PathCollection_19">
    <path d="M 122.021647 276.204248 
L 121.873534 275.465035 
L 120.039388 275.465035 
L 122.021647 285.358195 
L 111.438841 275.465035 
L 121.230904 275.465035 
z
" clip-path="url(#p66236f5618)" style="fill: #0a6f67"/>
    <path d="M 232.192 260.644945 
L 232.787209 259.579482 
L 232.192 259.604997 
L 231.427286 259.579482 
z
" clip-path="url(#p66236f5618)" style="fill: #0a6f67"/>
    <path d="M 136.493176 292.00084 
L 146.368134 259.579482 
L 145.113284 261.898541 
L 144.543659 277.088376 
L 149.386599 286.596518 
L 136.493176 201.775324 
L 169.969271 286.596518 
L 147.112505 277.088376 
L 208.941412 261.898541 
L 146.451728 259.579482 
z
M 177.215634 261.898541 
L 136.493176 271.37199 
L 141.338456 261.898541 
L 136.493176 260.014837 
z
M 145.851115 286.596518 
L 136.493176 262.885521 
L 140.097416 286.596518 
L 136.493176 283.423094 
z
" clip-path="url(#p66236f5618)" style="fill: #0a6f67"/>
    <path d="M 122.021647 271.685178 
L 121.381353 277.088376 
L 121.689317 286.596518 
L 121.579915 177.4848 
L 122.021647 152.011488 
L 107.605 177.4848 
L 107.411606 286.596518 
L 109.736069 277.088376 
z
M 117.327282 277.088376 
L 115.805423 286.596518 
L 117.80811 177.4848 
L 122.021647 170.039744 
L 121.892543 177.4848 
L 121.880249 286.596518 
L 121.776988 277.088376 
L 122.021647 275.023794 
z
" clip-path="url(#p66236f5618)" style="fill: #0a6f67"/>
    <path d="M 136.493176 164.331951 
L 171.87907 101.071812 
L 158.501073 248.795859 
L 138.39926 210.879247 
L 136.493176 193.30527 
L 137.549054 210.879247 
L 224.861916 248.795859 
L 169.994269 101.071812 
z
M 152.470583 101.071812 
L 188.187878 248.795859 
L 136.493176 225.929189 
L 149.367544 248.795859 
L 153.369486 101.071812 
L 136.493176 131.241961 
z
" clip-path="url(#p66236f5618)" style="fill: #0a6f67"/>
    <path d="M 136.493176 89.282756 
L 144.810931 172.035012 
L 137.114915 172.035012 
L 136.493176 165.849416 
L 137.588429 172.035012 
L 151.14571 172.035012 
z
" clip-path="url(#p66236f5618)" style="fill: #0a6f67"/>
    <path d="M 414.72 170.224851 
L 410.705681 172.035012 
L 414.72 172.035012 
L 406.841685 172.035012 
z
" clip-path="url(#p66236f5618)" style="fill: #0a6f67"/>
   </g>
   <g id="PathCollection_20">
    <path d="M 122.021647 275.465035 
L 121.873534 275.465035 
L 122.021647 276.204248 
L 121.230904 275.465035 
z
" clip-path="url(#p66236f5618)" style="fill: #015a50"/>
    <path d="M 136.493176 260.014837 
L 141.338456 261.898541 
L 136.493176 271.37199 
L 177.215634 261.898541 
z
M 145.489857 261.898541 
L 136.493176 263.991479 
L 137.563628 261.898541 
L 136.493176 261.48238 
z
" clip-path="url(#p66236f5618)" style="fill: #015a50"/>
    <path d="M 122.021647 275.023794 
L 121.776988 277.088376 
L 121.880249 286.596518 
L 121.892543 177.4848 
L 122.021647 170.039744 
L 117.80811 177.4848 
L 115.805423 286.596518 
L 117.327282 277.088376 
z
" clip-path="url(#p66236f5618)" style="fill: #015a50"/>
    <path d="M 136.493176 283.423094 
L 140.097416 286.596518 
L 136.493176 262.885521 
L 145.851115 286.596518 
z
" clip-path="url(#p66236f5618)" style="fill: #015a50"/>
    <path d="M 136.493176 131.241961 
L 153.369486 101.071812 
L 149.367544 248.795859 
L 136.493176 225.929189 
L 188.187878 248.795859 
L 152.470583 101.071812 
z
M 151.513839 248.795859 
L 136.493176 242.151608 
L 140.234015 248.795859 
L 136.493176 127.256589 
z
" clip-path="url(#p66236f5618)" style="fill: #015a50"/>
    <path d="M 136.493176 165.849416 
L 137.114915 172.035012 
L 136.493176 172.035012 
L 137.588429 172.035012 
z
" clip-path="url(#p66236f5618)" style="fill: #015a50"/>
   </g>
   <g id="PathCollection_21">
    <path d="M 136.493176 261.48238 
L 137.563628 261.898541 
L 136.493176 263.991479 
L 145.489857 261.898541 
z
" clip-path="url(#p66236f5618)" style="fill: #00463b"/>
    <path d="M 136.493176 127.256589 
L 140.234015 248.795859 
L 136.493176 242.151608 
L 151.513839 248.795859 
z
" clip-path="url(#p66236f5618)" style="fill: #00463b"/>
   </g>
   <g id="patch_3">
    <path d="M 57.6 307.584 
L 57.6 41.472 
" style="fill: none; stroke: #cccccc; stroke-linejoin: miter; stroke-linecap: square"/>
   </g>
   <g id="patch_4">
    <path d="M 414.72 307.584 
L 414.72 41.472 
" style="fill: none; stroke: #cccccc; stroke-linejoin: miter; stroke-linecap: square"/>
   </g>
   <g id="patch_5">
    <path d="M 57.6 307.584 
L 414.72 307.584 
" style="fill: none; stroke: #cccccc; stroke-linejoin: miter; stroke-linecap: square"/>
   </g>
   <g id="patch_6">
    <path d="M 57.6 41.472 
L 414.72 41.472 
" style="fill: none; stroke: #cccccc; stroke-linejoin: miter; stroke-linecap: square"/>
   </g>
  </g>
 </g>
 <defs>
  <clipPath id="p66236f5618">
   <rect x="57.6" y="41.472" width="357.12" height="266.112"/>
  </clipPath>
 </defs>
</svg>
